<svg height="24mm" viewBox="0 0 74 74" width="24mm" xmlns="http://www.w3.org/2000/svg"><g id="Numbers"><text fill="rgb(0,0,0)" font-family="ArialMT, Arial" font-size="18" transform="translate(31.995 -638.544)">5<tspan x="-5.005" y="124">15</tspan><tspan x="-5.005" y="248">25</tspan><tspan x="-5.005" y="372">35</tspan><tspan x="-5.005" y="496">45</tspan><tspan x="-5.005" y="620">55</tspan><tspan x="-5.005" y="744">65</tspan><tspan x="-5.005" y="868">75</tspan><tspan x="-5.005" y="992">85</tspan><tspan x="-5.005" y="1116">95</tspan><tspan x="-10.011" y="1240">105</tspan><tspan letter-spacing="-.074em" x="-9.343" y="1364">1</tspan><tspan x="-.668" y="1364">15</tspan><tspan x="-10.011" y="1488">125</tspan><tspan x="-10.011" y="1612">135</tspan><tspan x="-10.011" y="1736">145</tspan><tspan x="-10.011" y="1860">155</tspan><tspan x="-10.011" y="1984">165</tspan><tspan x="-10.011" y="2108">175</tspan><tspan x="-10.011" y="2232">185</tspan><tspan x="-10.011" y="2356">195</tspan><tspan x="-10.011" y="2480">205</tspan><tspan x="-10.011" y="2604">215</tspan><tspan x="-10.011" y="2728">225</tspan><tspan x="-10.011" y="2852">235</tspan><tspan x="-10.011" y="2976">245</tspan><tspan x="-10.011" y="3100">255</tspan><tspan x="-10.011" y="3224">265</tspan><tspan x="-10.011" y="3348">275</tspan><tspan x="-10.011" y="3472">285</tspan><tspan x="-10.011" y="3596">295</tspan></text></g><g id="_2_PT" data-name="2 PT"><path d="m60.8 64.067h-47.6a3.271 3.271 0 0 1 -3.267-3.267v-47.6a3.271 3.271 0 0 1 3.267-3.267h47.6a3.271 3.271 0 0 1 3.267 3.267v47.6a3.271 3.271 0 0 1 -3.267 3.267zm-47.6-52.134a1.268 1.268 0 0 0 -1.267 1.267v47.6a1.268 1.268 0 0 0 1.267 1.267h47.6a1.268 1.268 0 0 0 1.267-1.267v-47.6a1.268 1.268 0 0 0 -1.267-1.267z"/><path d="m55.133 56.133h-36.266a1 1 0 0 1 -1-1v-26.845a1 1 0 0 1 .293-.707l9.421-9.421a1 1 0 0 1 .707-.293h26.845a1 1 0 0 1 1 1v36.266a1 1 0 0 1 -1 1zm-35.267-2h34.267v-34.266h-25.433l-8.833 8.833z"/><path d="m57.533 3h2v7.933h-2z"/><path d="m48.92 3h2v7.933h-2z"/><path d="m40.307 3h2v7.933h-2z"/><path d="m31.693 3h2v7.933h-2z"/><path d="m23.08 3h2v7.933h-2z"/><path d="m14.467 3h2v7.933h-2z"/><path d="m57.533 63.067h2v7.933h-2z"/><path d="m48.92 63.067h2v7.933h-2z"/><path d="m40.307 63.067h2v7.933h-2z"/><path d="m31.693 63.067h2v7.933h-2z"/><path d="m23.08 63.067h2v7.933h-2z"/><path d="m14.467 63.067h2v7.933h-2z"/><path d="m63.067 57.533h7.933v2h-7.933z"/><path d="m63.067 48.92h7.933v2h-7.933z"/><path d="m63.067 40.307h7.933v2h-7.933z"/><path d="m63.067 31.693h7.933v2h-7.933z"/><path d="m63.067 23.08h7.933v2h-7.933z"/><path d="m63.067 14.467h7.933v2h-7.933z"/><path d="m3 57.533h7.933v2h-7.933z"/><path d="m3 48.92h7.933v2h-7.933z"/><path d="m3 40.307h7.933v2h-7.933z"/><path d="m3 31.693h7.933v2h-7.933z"/><path d="m3 23.08h7.933v2h-7.933z"/><path d="m3 14.467h7.933v2h-7.933z"/></g></svg>