<?xml version="1.0" encoding="UTF-8" standalone="no"?>
<!-- Created with Inkscape (http://www.inkscape.org/) -->

<svg xmlns:dc="http://purl.org/dc/elements/1.1/" xmlns:cc="http://creativecommons.org/ns#" xmlns:rdf="http://www.w3.org/1999/02/22-rdf-syntax-ns#" xmlns:svg="http://www.w3.org/2000/svg" xmlns="http://www.w3.org/2000/svg" xmlns:sodipodi="http://sodipodi.sourceforge.net/DTD/sodipodi-0.dtd" xmlns:inkscape="http://www.inkscape.org/namespaces/inkscape" width="165mm" height="120mm" viewBox="0 0 165.00001 120" version="1.1" id="svg8" inkscape:version="0.92.3 (2405546, 2018-03-11)" sodipodi:docname="cv.svg">
  <defs id="defs2" />
  <sodipodi:namedview id="base" pagecolor="#ffffff" bordercolor="#666666" borderopacity="1.0" inkscape:pageopacity="0.0" inkscape:pageshadow="2" inkscape:zoom="1.28" inkscape:cx="418.75" inkscape:cy="131.07048" inkscape:document-units="mm" inkscape:current-layer="layer1" showgrid="false" inkscape:window-width="1920" inkscape:window-height="1017" inkscape:window-x="1272" inkscape:window-y="-8" inkscape:window-maximized="1" fit-margin-top="0" fit-margin-left="0" fit-margin-right="0" fit-margin-bottom="0" />
  <metadata id="metadata5">
    <rdf:RDF>
      <cc:Work rdf:about="">
        <dc:format>image/svg+xml</dc:format>
        <dc:type rdf:resource="http://purl.org/dc/dcmitype/StillImage" />
        <dc:title></dc:title>
      </cc:Work>
    </rdf:RDF>
  </metadata>
  <g inkscape:label="MainLayer" id="layer1" transform="translate(-23.527259,-46.825005)">
    <g id="server" transform="matrix(0.0390625,0,0,0.0390625,95.07348,55.550005)" inkscape:label="#server">
      <g id="g4571">
        <g id="g4569">
          <g id="g4567">
            <path id="path4537" d="m 119.467,162.133 h -51.2 c -4.713,0 -8.533,3.82 -8.533,8.533 0,4.713 3.82,8.533 8.533,8.533 h 51.2 c 4.713,0 8.533,-3.82 8.533,-8.533 0,-4.713 -3.82,-8.533 -8.533,-8.533 z" inkscape:connector-curvature="0" />
            <path id="path4539" d="m 119.467,196.267 h -51.2 c -4.713,0 -8.533,3.82 -8.533,8.533 0,4.713 3.82,8.533 8.533,8.533 h 51.2 c 4.713,0 8.533,-3.821 8.533,-8.533 0,-4.712 -3.82,-8.533 -8.533,-8.533 z" inkscape:connector-curvature="0" />
            <path id="path4541" d="m 93.867,247.467 c -18.851,0 -34.133,15.282 -34.133,34.133 0,18.851 15.282,34.133 34.133,34.133 18.842,-0.022 34.112,-15.291 34.133,-34.133 0,-18.851 -15.282,-34.133 -34.133,-34.133 z m 0,51.2 C 84.445,298.658 76.81,291.022 76.8,281.6 c 0,-9.426 7.641,-17.067 17.067,-17.067 9.426,0 17.067,7.641 17.067,17.067 -10e-4,9.426 -7.642,17.067 -17.067,17.067 z" inkscape:connector-curvature="0" />
            <path id="path4543" d="M 102.4,85.333 H 42.667 c -4.713,0 -8.533,3.821 -8.533,8.533 0,4.713 3.82,8.533 8.533,8.533 H 102.4 c 4.713,0 8.533,-3.821 8.533,-8.533 0,-4.712 -3.82,-8.533 -8.533,-8.533 z" inkscape:connector-curvature="0" />
            <path id="path4545" d="m 486.4,366.933 c 14.132,-0.015 25.585,-11.468 25.6,-25.6 V 68.267 C 511.985,54.135 500.532,42.682 486.4,42.667 H 366.933 V 25.6 C 366.918,11.468 355.465,0.015 341.333,0 H 170.667 c -14.132,0.015 -25.585,11.468 -25.6,25.6 V 42.667 H 25.6 C 11.468,42.682 0.015,54.135 0,68.267 v 273.067 c 0.015,14.132 11.468,25.585 25.6,25.6 H 85.333 V 460.8 H 68.267 C 58.845,460.809 51.21,468.445 51.2,477.867 H 8.533 C 3.82,477.867 0,481.687 0,486.4 c 0,4.713 3.82,8.533 8.533,8.533 H 51.2 c 0.009,9.422 7.645,17.057 17.067,17.067 h 51.2 c 9.422,-0.009 17.057,-7.645 17.067,-17.067 h 76.8 c 0.009,9.422 7.645,17.057 17.067,17.067 h 51.2 c 9.422,-0.009 17.057,-7.645 17.067,-17.067 h 76.8 c 0.009,9.422 7.645,17.057 17.067,17.067 h 51.2 c 9.422,-0.009 17.057,-7.645 17.067,-17.067 h 42.667 c 4.713,0 8.533,-3.82 8.533,-8.533 0,-4.713 -3.82,-8.533 -8.533,-8.533 H 460.8 C 460.791,468.445 453.155,460.81 443.733,460.8 H 426.666 V 366.933 Z M 366.933,102.4 h 59.733 c 4.713,0 8.533,-3.821 8.533,-8.533 0,-4.713 -3.82,-8.533 -8.533,-8.533 h -59.733 v -25.6 H 486.4 c 4.71,0.006 8.527,3.823 8.533,8.533 V 128 h -128 z m -204.8,-76.8 c 0.006,-4.71 3.823,-8.527 8.533,-8.533 h 170.667 c 4.71,0.006 8.527,3.823 8.533,8.533 v 76.8 H 162.133 Z m 0,93.867 H 349.866 V 384 c -0.006,4.71 -3.823,8.527 -8.533,8.533 H 170.667 c -4.71,-0.006 -8.527,-3.823 -8.533,-8.533 V 119.467 Z M 17.067,68.267 c 0.006,-4.71 3.823,-8.527 8.533,-8.533 h 119.467 v 25.6 h -8.533 c -4.713,0 -8.533,3.821 -8.533,8.533 0,4.713 3.82,8.533 8.533,8.533 h 8.533 V 128 h -128 V 68.267 Z m 8.533,281.6 c -4.71,-0.006 -8.527,-3.823 -8.533,-8.533 V 145.067 h 128 v 204.8 z m 42.667,145.066 v -17.067 h 51.2 l 0.006,8.503 -0.006,0.031 0.006,0.031 0.006,8.502 z m 145.066,-17.066 h -76.8 C 136.524,468.445 128.888,460.81 119.466,460.8 H 102.4 v -93.867 h 42.667 V 384 c 0.015,14.132 11.468,25.585 25.6,25.6 h 76.8 v 51.2 H 230.4 c -9.422,0.009 -17.057,7.645 -17.067,17.067 z m 17.067,17.066 v -17.067 h 51.2 l 0.006,8.503 -0.006,0.031 0.006,0.031 0.006,8.502 z m 145.067,-17.066 h -76.8 C 298.658,468.445 291.022,460.81 281.6,460.8 h -17.067 v -51.2 h 76.8 c 14.132,-0.015 25.585,-11.468 25.6,-25.6 V 366.933 H 409.6 V 460.8 h -17.067 c -9.421,0.009 -17.057,7.645 -17.066,17.067 z m 68.266,0 0.006,8.503 -0.006,0.031 0.006,0.031 0.006,8.502 h -51.213 v -17.067 z m -76.8,-128 v -204.8 h 128 v 196.267 c -0.006,4.71 -3.823,8.527 -8.533,8.533 z" inkscape:connector-curvature="0" />
            <path id="path4547" d="m 443.733,162.133 h -51.2 c -4.713,0 -8.533,3.82 -8.533,8.533 0,4.713 3.821,8.533 8.533,8.533 h 51.2 c 4.713,0 8.533,-3.82 8.533,-8.533 0,-4.713 -3.82,-8.533 -8.533,-8.533 z" inkscape:connector-curvature="0" />
            <path id="path4549" d="m 443.733,196.267 h -51.2 c -4.713,0 -8.533,3.82 -8.533,8.533 0,4.713 3.821,8.533 8.533,8.533 h 51.2 c 4.713,0 8.533,-3.821 8.533,-8.533 0,-4.712 -3.82,-8.533 -8.533,-8.533 z" inkscape:connector-curvature="0" />
            <path id="path4551" d="m 418.133,247.467 c -18.851,0 -34.133,15.282 -34.133,34.133 0,18.851 15.282,34.133 34.133,34.133 18.851,0 34.133,-15.282 34.133,-34.133 -0.021,-18.842 -15.29,-34.112 -34.133,-34.133 z m 0,51.2 c -9.426,0 -17.067,-7.641 -17.067,-17.067 0,-9.426 7.641,-17.067 17.067,-17.067 9.426,0 17.067,7.641 17.067,17.067 -0.009,9.422 -7.645,17.057 -17.067,17.067 z" inkscape:connector-curvature="0" />
            <path id="path4553" d="m 256,290.133 c -18.851,0 -34.133,15.282 -34.133,34.133 0,18.851 15.282,34.133 34.133,34.133 18.851,0 34.133,-15.282 34.133,-34.133 C 290.112,305.424 274.842,290.155 256,290.133 Z m 0,51.2 c -9.426,0 -17.067,-7.641 -17.067,-17.067 0,-9.426 7.641,-17.066 17.067,-17.066 9.426,0 17.067,7.641 17.067,17.067 -0.01,9.421 -7.645,17.057 -17.067,17.066 z" inkscape:connector-curvature="0" />
            <path id="path4555" d="M 469.333,85.333 H 460.8 c -4.713,0 -8.533,3.821 -8.533,8.533 0,4.713 3.821,8.533 8.533,8.533 h 8.533 c 4.713,0 8.533,-3.821 8.533,-8.533 0.001,-4.712 -3.82,-8.533 -8.533,-8.533 z" inkscape:connector-curvature="0" />
            <path id="path4557" d="m 281.6,51.2 h -93.867 c -4.713,0 -8.533,3.82 -8.533,8.533 0,4.713 3.82,8.533 8.533,8.533 H 281.6 c 4.713,0 8.533,-3.82 8.533,-8.533 0,-4.713 -3.82,-8.533 -8.533,-8.533 z" inkscape:connector-curvature="0" />
            <path id="path4559" d="m 324.267,51.2 h -8.533 c -4.713,0 -8.533,3.82 -8.533,8.533 0,4.713 3.82,8.533 8.533,8.533 h 8.533 c 4.713,0 8.533,-3.82 8.533,-8.533 0,-4.713 -3.821,-8.533 -8.533,-8.533 z" inkscape:connector-curvature="0" />
            <path id="path4561" d="m 213.333,153.6 h 85.333 c 4.713,0 8.533,-3.821 8.533,-8.533 0,-4.712 -3.82,-8.533 -8.533,-8.533 h -85.333 c -4.713,0 -8.533,3.82 -8.533,8.533 0,4.713 3.821,8.533 8.533,8.533 z" inkscape:connector-curvature="0" />
            <path id="path4563" d="m 213.333,187.733 h 85.333 c 4.713,0 8.533,-3.82 8.533,-8.533 0,-4.713 -3.82,-8.533 -8.533,-8.533 h -85.333 c -4.713,0 -8.533,3.82 -8.533,8.533 0,4.713 3.821,8.533 8.533,8.533 z" inkscape:connector-curvature="0" />
            <path id="path4565" d="m 213.333,221.867 h 85.333 c 4.713,0 8.533,-3.821 8.533,-8.533 0,-4.713 -3.82,-8.533 -8.533,-8.533 h -85.333 c -4.713,0 -8.533,3.821 -8.533,8.533 0,4.712 3.821,8.533 8.533,8.533 z" inkscape:connector-curvature="0" />
          </g>
        </g>
      </g>
      <g id="g4573" />
      <g id="g4575" />
      <g id="g4577" />
      <g id="g4579" />
      <g id="g4581" />
      <g id="g4583" />
      <g id="g4585" />
      <g id="g4587" />
      <g id="g4589" />
      <g id="g4591" />
      <g id="g4593" />
      <g id="g4595" />
      <g id="g4597" />
      <g id="g4599" />
      <g id="g4601" />
    </g>
    <g id="browser" transform="matrix(0.04807692,0,0,0.04807692,92.765828,135.79231)">
      <path id="path4645" d="M 476,48 H 36 A 28.031,28.031 0 0 0 8,76 v 360 a 28.031,28.031 0 0 0 28,28 h 440 a 28.031,28.031 0 0 0 28,-28 V 76 A 28.031,28.031 0 0 0 476,48 Z m 12,388 a 12.01,12.01 0 0 1 -12,12 H 36 A 12.01,12.01 0 0 1 24,436 V 112 H 488 Z M 488,96 H 24 V 76 A 12.01,12.01 0 0 1 36,64 h 440 a 12.01,12.01 0 0 1 12,12 z" inkscape:connector-curvature="0" />
      <path id="path4647" d="m 40,88 h 8 a 8,8 0 0 0 0,-16 h -8 a 8,8 0 0 0 0,16 z" inkscape:connector-curvature="0" />
      <path id="path4649" d="m 72,88 h 8 a 8,8 0 0 0 0,-16 h -8 a 8,8 0 0 0 0,16 z" inkscape:connector-curvature="0" />
      <path id="path4651" d="m 104,88 h 8 a 8,8 0 0 0 0,-16 h -8 a 8,8 0 0 0 0,16 z" inkscape:connector-curvature="0" />
      <path id="path4653" d="m 276,144 h -40 a 20.023,20.023 0 0 0 -20,20 v 40 a 20.023,20.023 0 0 0 20,20 h 40 a 20.023,20.023 0 0 0 20,-20 v -40 a 20.023,20.023 0 0 0 -20,-20 z m 4,60 a 4,4 0 0 1 -4,4 h -40 a 4,4 0 0 1 -4,-4 v -40 a 4,4 0 0 1 4,-4 h 40 a 4,4 0 0 1 4,4 z" inkscape:connector-curvature="0" />
      <path id="path4655" d="m 276,240 h -40 a 20.023,20.023 0 0 0 -20,20 v 40 a 20.023,20.023 0 0 0 20,20 h 40 a 20.023,20.023 0 0 0 20,-20 v -40 a 20.023,20.023 0 0 0 -20,-20 z m 4,60 a 4,4 0 0 1 -4,4 h -40 a 4,4 0 0 1 -4,-4 v -40 a 4,4 0 0 1 4,-4 h 40 a 4,4 0 0 1 4,4 z" inkscape:connector-curvature="0" />
      <path id="path4657" d="m 276,336 h -40 a 20.023,20.023 0 0 0 -20,20 v 40 a 20.023,20.023 0 0 0 20,20 h 40 a 20.023,20.023 0 0 0 20,-20 v -40 a 20.023,20.023 0 0 0 -20,-20 z m 4,60 a 4,4 0 0 1 -4,4 h -40 a 4,4 0 0 1 -4,-4 v -40 a 4,4 0 0 1 4,-4 h 40 a 4,4 0 0 1 4,4 z" inkscape:connector-curvature="0" />
      <path id="path4659" d="m 372,144 h -40 a 20.023,20.023 0 0 0 -20,20 v 40 a 20.023,20.023 0 0 0 20,20 h 40 a 20.023,20.023 0 0 0 20,-20 v -40 a 20.023,20.023 0 0 0 -20,-20 z m 4,60 a 4,4 0 0 1 -4,4 h -40 a 4,4 0 0 1 -4,-4 v -40 a 4,4 0 0 1 4,-4 h 40 a 4,4 0 0 1 4,4 z" inkscape:connector-curvature="0" />
      <path id="path4661" d="m 372,240 h -40 a 20.023,20.023 0 0 0 -20,20 v 40 a 20.023,20.023 0 0 0 20,20 h 40 a 20.023,20.023 0 0 0 20,-20 v -40 a 20.023,20.023 0 0 0 -20,-20 z m 4,60 a 4,4 0 0 1 -4,4 h -40 a 4,4 0 0 1 -4,-4 v -40 a 4,4 0 0 1 4,-4 h 40 a 4,4 0 0 1 4,4 z" inkscape:connector-curvature="0" />
      <path id="path4663" d="m 372,336 h -40 a 20.023,20.023 0 0 0 -20,20 v 40 a 20.023,20.023 0 0 0 20,20 h 40 a 20.023,20.023 0 0 0 20,-20 v -40 a 20.023,20.023 0 0 0 -20,-20 z m 4,60 a 4,4 0 0 1 -4,4 h -40 a 4,4 0 0 1 -4,-4 v -40 a 4,4 0 0 1 4,-4 h 40 a 4,4 0 0 1 4,4 z" inkscape:connector-curvature="0" />
      <path id="path4665" d="m 180,144 h -40 a 20.023,20.023 0 0 0 -20,20 v 40 a 20.023,20.023 0 0 0 20,20 h 40 a 20.023,20.023 0 0 0 20,-20 v -40 a 20.023,20.023 0 0 0 -20,-20 z m 4,60 a 4,4 0 0 1 -4,4 h -40 a 4,4 0 0 1 -4,-4 v -40 a 4,4 0 0 1 4,-4 h 40 a 4,4 0 0 1 4,4 z" inkscape:connector-curvature="0" />
      <path id="path4667" d="m 180,240 h -40 a 20.023,20.023 0 0 0 -20,20 v 40 a 20.023,20.023 0 0 0 20,20 h 40 a 20.023,20.023 0 0 0 20,-20 v -40 a 20.023,20.023 0 0 0 -20,-20 z m 4,60 a 4,4 0 0 1 -4,4 h -40 a 4,4 0 0 1 -4,-4 v -40 a 4,4 0 0 1 4,-4 h 40 a 4,4 0 0 1 4,4 z" inkscape:connector-curvature="0" />
      <path id="path4669" d="m 180,336 h -40 a 20.023,20.023 0 0 0 -20,20 v 40 a 20.023,20.023 0 0 0 20,20 h 40 a 20.023,20.023 0 0 0 20,-20 v -40 a 20.023,20.023 0 0 0 -20,-20 z m 4,60 a 4,4 0 0 1 -4,4 h -40 a 4,4 0 0 1 -4,-4 v -40 a 4,4 0 0 1 4,-4 h 40 a 4,4 0 0 1 4,4 z" inkscape:connector-curvature="0" />
    </g>
    <g id="network" transform="matrix(0.04019757,0,0,0.04019757,94.782961,96.989213)" inkscape:label="#network">
      <path id="path4767" d="M 493.213,56.983 H 389.609 c -4.142,0 -7.5,3.358 -7.5,7.5 0,4.142 3.358,7.5 7.5,7.5 h 103.604 c 2.088,0 3.787,1.699 3.787,3.787 v 22.456 h -19.117 c -4.142,0 -7.5,3.358 -7.5,7.5 0,4.142 3.358,7.5 7.5,7.5 H 497 v 14.333 h -19.117 c -4.142,0 -7.5,3.358 -7.5,7.5 0,4.142 3.358,7.5 7.5,7.5 H 497 v 14.333 h -19.117 c -4.142,0 -7.5,3.358 -7.5,7.5 0,4.142 3.358,7.5 7.5,7.5 H 497 v 14.333 h -19.117 c -4.142,0 -7.5,3.358 -7.5,7.5 0,4.142 3.358,7.5 7.5,7.5 H 497 v 22.456 c 0,2.088 -1.699,3.787 -3.787,3.787 H 105.137 c -4.142,0 -7.5,3.358 -7.5,7.5 0,4.142 3.358,7.5 7.5,7.5 h 143.352 v 62.925 h -14.378 c -4.142,0 -7.5,3.358 -7.5,7.5 v 80.863 h -46.538 c -9.772,0 -17.722,7.95 -17.722,17.722 v 4.156 H 85.566 v -9.857 c 0,-8.01 -6.516,-14.526 -14.526,-14.526 H 36.326 c -8.01,0 -14.526,6.516 -14.526,14.526 v 34.714 c 0,8.01 6.516,14.526 14.526,14.526 H 71.04 c 8.01,0 14.526,-6.516 14.526,-14.526 v -9.857 h 76.784 v 4.156 c 0,9.772 7.95,17.722 17.722,17.722 h 151.832 c 9.772,0 17.722,-7.95 17.722,-17.722 v -4.156 h 76.958 v 9.857 c 0,8.01 6.517,14.526 14.526,14.526 h 34.714 c 8.01,0 14.526,-6.516 14.526,-14.526 v -34.714 c 0,-8.01 -6.516,-14.526 -14.526,-14.526 H 441.11 c -8.01,0 -14.526,6.516 -14.526,14.526 v 9.857 h -76.958 v -4.156 c 0,-9.772 -7.95,-17.722 -17.722,-17.722 h -46.538 v -80.863 c 0,-4.142 -3.358,-7.5 -7.5,-7.5 h -14.378 v -62.925 h 229.724 c 10.359,0 18.787,-8.428 18.787,-18.787 V 75.77 C 512,65.411 503.572,56.983 493.213,56.983 Z M 70.566,440.017 H 36.8 v -33.766 h 33.766 z m 371.019,-33.766 h 33.766 v 33.766 h -33.766 z m -156.825,2.505 h 47.145 c 1.501,0 2.722,1.221 2.722,2.722 v 23.311 c 0,1.501 -1.221,2.722 -2.722,2.722 H 180.072 c -1.501,0 -2.722,-1.221 -2.722,-2.722 v -23.311 c 0,-1.501 1.221,-2.722 2.722,-2.722 h 47.145 c 7.936,0 14.393,-6.457 14.393,-14.394 v -73.969 h 28.756 v 73.969 c 0.001,7.937 6.458,14.394 14.394,14.394 z" inkscape:connector-curvature="0" />
      <path id="path4769" d="m 82.637,234.968 c 0,-4.142 -3.358,-7.5 -7.5,-7.5 H 18.787 C 16.699,227.468 15,225.769 15,223.681 V 75.77 c 0,-2.088 1.699,-3.787 3.787,-3.787 h 340.822 c 4.142,0 7.5,-3.358 7.5,-7.5 0,-4.142 -3.358,-7.5 -7.5,-7.5 H 18.787 C 8.428,56.983 0,65.411 0,75.77 v 147.912 c 0,10.359 8.428,18.787 18.787,18.787 h 56.351 c 4.141,-0.001 7.499,-3.359 7.499,-7.501 z" inkscape:connector-curvature="0" />
      <path id="path4771" d="M 94.25,104.158 H 57.823 c -4.142,0 -7.5,3.358 -7.5,7.5 v 16.639 h -7.932 c -4.142,0 -7.5,3.358 -7.5,7.5 v 51.997 c 0,4.142 3.358,7.5 7.5,7.5 h 67.291 c 4.142,0 7.5,-3.358 7.5,-7.5 v -51.997 c 0,-4.142 -3.358,-7.5 -7.5,-7.5 h -7.932 v -16.639 c 0,-4.142 -3.358,-7.5 -7.5,-7.5 z m 7.932,39.139 v 36.997 H 49.891 v -36.997 h 7.932 c 4.142,0 7.5,-3.358 7.5,-7.5 V 119.158 H 86.75 v 16.639 c 0,4.142 3.358,7.5 7.5,7.5 z" inkscape:connector-curvature="0" />
      <path id="path4773" d="M 197.877,104.158 H 161.45 c -4.142,0 -7.5,3.358 -7.5,7.5 v 16.639 h -7.932 c -4.142,0 -7.5,3.358 -7.5,7.5 v 51.997 c 0,4.142 3.358,7.5 7.5,7.5 h 67.291 c 4.142,0 7.5,-3.358 7.5,-7.5 v -51.997 c 0,-4.142 -3.358,-7.5 -7.5,-7.5 h -7.932 v -16.639 c 0,-4.142 -3.358,-7.5 -7.5,-7.5 z m 7.932,39.139 v 36.997 h -52.291 v -36.997 h 7.932 c 4.142,0 7.5,-3.358 7.5,-7.5 v -16.639 h 21.427 v 16.639 c 0,4.142 3.358,7.5 7.5,7.5 z" inkscape:connector-curvature="0" />
      <path id="path4775" d="m 301.502,104.158 h -36.427 c -4.142,0 -7.5,3.358 -7.5,7.5 v 16.639 h -7.932 c -4.142,0 -7.5,3.358 -7.5,7.5 v 51.997 c 0,4.142 3.358,7.5 7.5,7.5 h 67.291 c 4.142,0 7.5,-3.358 7.5,-7.5 v -51.997 c 0,-4.142 -3.358,-7.5 -7.5,-7.5 h -7.933 v -16.639 c 0.001,-4.142 -3.356,-7.5 -7.499,-7.5 z m 7.933,39.139 v 36.997 h -52.292 v -36.997 h 7.932 c 4.142,0 7.5,-3.358 7.5,-7.5 v -16.639 h 21.427 v 16.639 c 0,4.142 3.358,7.5 7.5,7.5 z" inkscape:connector-curvature="0" />
      <path id="path4777" d="m 405.129,104.158 h -36.427 c -4.142,0 -7.5,3.358 -7.5,7.5 v 16.639 h -7.932 c -4.142,0 -7.5,3.358 -7.5,7.5 v 51.997 c 0,4.142 3.358,7.5 7.5,7.5 h 67.291 c 4.142,0 7.5,-3.358 7.5,-7.5 v -51.997 c 0,-4.142 -3.358,-7.5 -7.5,-7.5 h -7.932 v -16.639 c 0,-4.142 -3.358,-7.5 -7.5,-7.5 z m 7.932,39.139 v 36.997 H 360.77 v -36.997 h 7.932 c 4.142,0 7.5,-3.358 7.5,-7.5 v -16.639 h 21.427 v 16.639 c 0,4.142 3.358,7.5 7.5,7.5 z" inkscape:connector-curvature="0" />
    </g>
    <g id="iot" transform="translate(3.4523156,-8.7249968)">
      <g transform="matrix(0.04166667,0,0,0.04166667,159.50596,146.825)" id="g4765">
        <g id="g4699">
          <g id="g4697" />
        </g>
        <g id="g4705">
          <g id="g4703">
            <path inkscape:connector-curvature="0" d="M 400,72 H 80 c -4.418,0 -8,3.582 -8,8 v 320 c 0,4.418 3.582,8 8,8 h 320 c 4.418,0 8,-3.582 8,-8 V 80 c 0,-4.418 -3.582,-8 -8,-8 z m -8,320 H 88 V 88 h 304 z" id="path4701" />
          </g>
        </g>
        <g id="g4707" />
        <g id="g4709" />
        <g id="g4711" />
        <g id="g4713" />
        <g id="g4715" />
        <g id="g4717" />
        <g id="g4719" />
        <g id="g4721" />
        <g id="g4723" />
        <g id="g4725" />
        <g id="g4727" />
        <g id="g4729" />
        <g id="g4731" />
        <g id="g4733" />
        <g id="g4735" />
      </g>
      <g id="g4803">
        <path transform="matrix(0.04166667,0,0,0.04166667,159.50596,146.825)" id="path4695" d="M 480,88 V 72 H 440 V 64 C 440,50.745 429.255,40 416,40 h -8 V 0 H 392 V 40 H 376 V 0 H 360 V 40 H 344 V 0 H 328 V 40 H 312 V 0 H 296 V 40 H 280 V 0 H 264 V 40 H 248 V 0 H 232 V 40 H 216 V 0 H 200 V 40 H 184 V 0 H 168 V 40 H 152 V 0 H 136 V 40 H 120 V 0 H 104 V 40 H 88 V 0 H 72 V 40 H 64 C 50.745,40 40,50.745 40,64 v 8 H 0 v 16 h 40 v 16 H 0 v 16 h 40 v 16 H 0 v 16 h 40 v 16 H 0 v 16 h 40 v 16 H 0 v 16 h 40 v 16 H 0 v 16 h 40 v 16 H 0 v 16 h 40 v 16 H 0 v 16 h 40 v 16 H 0 v 16 h 40 v 16 H 0 v 16 h 40 v 16 H 0 v 16 h 40 v 8 c 0,13.255 10.745,24 24,24 h 8 v 40 h 16 v -40 h 16 v 40 h 16 v -40 h 16 v 40 h 16 v -40 h 16 v 40 h 16 v -40 h 16 v 40 h 16 v -40 h 16 v 40 h 16 v -40 h 16 v 40 h 16 v -40 h 16 v 40 h 16 v -40 h 16 v 40 h 16 v -40 h 16 v 40 h 16 v -40 h 16 v 40 h 16 v -40 h 8 c 13.255,0 24,-10.745 24,-24 v -8 h 40 v -16 h -40 v -16 h 40 v -16 h -40 v -16 h 40 v -16 h -40 v -16 h 40 v -16 h -40 v -16 h 40 v -16 h -40 v -16 h 40 v -16 h -40 v -16 h 40 v -16 h -40 v -16 h 40 v -16 h -40 v -16 h 40 v -16 h -40 v -16 h 40 V 104 H 440 V 88 Z m -56,328 c 0,4.418 -3.582,8 -8,8 H 64 c -4.418,0 -8,-3.582 -8,-8 V 64 c 0,-4.418 3.582,-8 8,-8 h 352 c 4.418,0 8,3.582 8,8 z" inkscape:connector-curvature="0" />
        <text xml:space="preserve" style="font-style:normal;font-weight:normal;font-size:10.58333302px;line-height:1.25;font-family:sans-serif;letter-spacing:0px;word-spacing:0px;fill:#000000;fill-opacity:1;stroke:none;stroke-width:0.26458332" x="165.55064" y="158.36392" id="text4797"><tspan sodipodi:role="line" id="tspan4795" x="165.55064" y="158.36392" style="font-size:4.23333311px;stroke-width:0.26458332">IOT</tspan></text>
      </g>
    </g>
    <g id="mobile" transform="translate(5.5689823,-8.7249968)">
      <g transform="matrix(0.03030691,0,0,0.03030691,33.876143,149.06643)" id="Smartphone">
        <path inkscape:connector-curvature="0" d="M 352,8 H 160 a 40.045,40.045 0 0 0 -40,40 v 416 a 40.045,40.045 0 0 0 40,40 h 192 a 40.045,40.045 0 0 0 40,-40 V 48 A 40.045,40.045 0 0 0 352,8 Z m -41.758,16 -4.8,24 h -98.883 l -4.8,-24 z M 376,464 a 24.027,24.027 0 0 1 -24,24 H 160 A 24.027,24.027 0 0 1 136,464 V 48 a 24.027,24.027 0 0 1 24,-24 h 25.441 l 6.714,33.569 A 8,8 0 0 0 200,64 h 112 a 8,8 0 0 0 7.845,-6.431 L 326.559,24 H 352 a 24.027,24.027 0 0 1 24,24 z" id="path4518" />
        <path inkscape:connector-curvature="0" d="m 208,456 h -48 a 8,8 0 0 0 0,16 h 48 a 8,8 0 0 0 0,-16 z" id="path4520" />
        <path inkscape:connector-curvature="0" d="m 240,456 h -8 a 8,8 0 0 0 0,16 h 8 a 8,8 0 0 0 0,-16 z" id="path4522" />
      </g>
      <g transform="matrix(0.19886386,0,0,0.19886386,-30.831509,79.624942)" id="g4890">
        <g transform="matrix(0.19667405,0,0,0.19667405,266.91933,338.16698)" id="g4825">
          <g id="g4823">
            <path inkscape:connector-curvature="0" d="M 338.842,456.093 V 47.21 c 0,-1.979 -1.605,-3.586 -3.586,-3.586 H 73.397 c -1.979,0 -3.586,1.606 -3.586,3.586 v 408.883 c 0,1.979 1.606,3.586 3.586,3.586 h 261.859 c 1.981,0 3.586,-1.607 3.586,-3.586 z m -7.172,-3.586 H 76.983 V 50.796 H 331.67 Z" id="path4805" />
            <path inkscape:connector-curvature="0" d="M 214.195,466.851 H 189.85 c -4.896,0 -8.884,3.987 -8.884,8.884 v 2.027 c 0,4.896 3.988,8.884 8.884,8.884 h 24.346 c 4.896,0 8.884,-3.988 8.884,-8.884 v -2.027 c -0.001,-4.897 -3.988,-8.884 -8.885,-8.884 z m 4.103,10.911 c 0,2.266 -1.836,4.102 -4.103,4.102 H 189.85 c -2.257,0 -4.103,-1.836 -4.103,-4.102 v -2.027 c 0,-2.267 1.836,-4.103 4.103,-4.103 h 24.346 c 2.257,0 4.103,1.836 4.103,4.103 v 2.027 z" id="path4807" />
            <path inkscape:connector-curvature="0" d="m 132.168,470.905 h -18.589 c -0.583,0 -1.042,0.469 -1.042,1.042 v 9.601 c 0,0.574 0.459,1.043 1.042,1.043 0.574,0 1.033,-0.469 1.033,-1.043 v -8.567 h 16.514 v 8.567 c 0,0.574 0.469,1.043 1.042,1.043 0.564,0 1.033,-0.469 1.033,-1.043 v -9.601 c 0,-0.573 -0.469,-1.042 -1.033,-1.042 z" id="path4809" />
            <path inkscape:connector-curvature="0" d="m 127.158,475.705 h -8.587 c -0.574,0 -1.033,0.479 -1.033,1.043 v 0 c 0,0.363 0.22,0.631 0.498,0.812 0.163,0.105 0.325,0.22 0.535,0.22 h 8.587 c 0.21,0 0.373,-0.114 0.536,-0.22 0.287,-0.182 0.507,-0.449 0.507,-0.812 v 0 c -0.001,-0.564 -0.46,-1.043 -1.043,-1.043 z" id="path4811" />
            <path inkscape:connector-curvature="0" d="m 290.122,471.115 h -7.152 l 0.211,-0.507 -3.645,1.54 3.645,1.539 -0.211,-0.497 h 7.152 c 2.172,0 3.93,1.702 3.93,3.806 0,2.104 -1.758,3.806 -3.93,3.806 h -7.01 c -0.582,0 -1.031,0.469 -1.031,1.033 0,0.574 0.459,1.042 1.031,1.042 h 7.01 c 3.309,0 5.996,-2.648 5.996,-5.89 0.009,-3.232 -2.688,-5.872 -5.996,-5.872 z" id="path4813" />
            <circle cx="235.83501" cy="27.014" r="2.027" id="circle4815" />
            <circle cx="282.5" cy="27.014" r="3.7869999" id="circle4817" />
            <path inkscape:connector-curvature="0" d="M 370.561,462.71 V 46.129 C 370.561,20.693 349.868,0 324.432,0 H 78.81 C 53.374,0 32.68,20.693 32.68,46.129 v 416.59 c 0,25.437 20.693,46.129 46.129,46.129 h 245.632 c 25.427,-0.008 46.12,-20.702 46.12,-46.138 z m -323.537,0 V 46.129 c 0,-17.528 14.258,-31.786 31.786,-31.786 h 245.632 c 17.518,0 31.785,14.257 31.785,31.786 v 416.59 c 0,17.519 -14.258,31.785 -31.785,31.785 H 78.81 C 61.291,494.496 47.024,480.238 47.024,462.71 Z" id="path4821" />
          </g>
        </g>
        <g id="g4827" />
        <g id="g4829" />
        <g id="g4831" />
        <g id="g4833" />
        <g id="g4835" />
        <g id="g4837" />
        <g id="g4839" />
        <g id="g4841" />
        <g id="g4843" />
        <g id="g4845" />
        <g id="g4847" />
        <g id="g4849" />
        <g id="g4851" />
        <g id="g4853" />
        <g id="g4855" />
      </g>
    </g>
    <path style="fill:none;stroke:#000000;stroke-width:0.205;stroke-linecap:butt;stroke-linejoin:miter;stroke-miterlimit:4;stroke-dasharray:none;stroke-dashoffset:0;stroke-opacity:1" d="M 105.13182,74.883325 V 99.382263" id="line-1" inkscape:connector-curvature="0" />
    <path style="fill:none;stroke:#000000;stroke-width:0.205;stroke-linecap:butt;stroke-linejoin:miter;stroke-miterlimit:4;stroke-dasharray:none;stroke-dashoffset:0;stroke-opacity:1" d="m 105.07618,115.00102 v 23.22941" id="line-3" inkscape:connector-curvature="0" inkscape:label="#line-3" />
    <path style="fill:none;stroke:#000000;stroke-width:0.205;stroke-linecap:butt;stroke-linejoin:miter;stroke-miterlimit:4;stroke-dasharray:none;stroke-dashoffset:0;stroke-opacity:1" d="M 95.748921,114.45991 40.424128,137.68932" id="line-2" inkscape:connector-curvature="0" sodipodi:nodetypes="cc" />
    <path style="fill:none;stroke:#000000;stroke-width:0.205;stroke-linecap:butt;stroke-linejoin:miter;stroke-miterlimit:4;stroke-dasharray:none;stroke-dashoffset:0;stroke-opacity:1" d="m 114.3423,114.83933 55.3248,23.22941" id="line-4" inkscape:connector-curvature="0" sodipodi:nodetypes="cc" />
  </g>
</svg>
