<?xml version="1.0" encoding="UTF-8" standalone="no"?>
<svg
   xmlns:dc="http://purl.org/dc/elements/1.1/"
   xmlns:cc="http://creativecommons.org/ns#"
   xmlns:rdf="http://www.w3.org/1999/02/22-rdf-syntax-ns#"
   xmlns:svg="http://www.w3.org/2000/svg"
   xmlns="http://www.w3.org/2000/svg"
   xmlns:sodipodi="http://sodipodi.sourceforge.net/DTD/sodipodi-0.dtd"
   xmlns:inkscape="http://www.inkscape.org/namespaces/inkscape"
   height="24mm"
   viewBox="0 0 74 74"
   width="24mm"
   version="1.1"
   id="svg118"
   sodipodi:docname="desktop.svg"
   inkscape:version="0.92.3 (2405546, 2018-03-11)">
  <metadata
     id="metadata124">
    <rdf:RDF>
      <cc:Work
         rdf:about="">
        <dc:format>image/svg+xml</dc:format>
        <dc:type
           rdf:resource="http://purl.org/dc/dcmitype/StillImage" />
      </cc:Work>
    </rdf:RDF>
  </metadata>
  <defs
     id="defs122" />
  <sodipodi:namedview
     pagecolor="#ffffff"
     bordercolor="#666666"
     borderopacity="1"
     objecttolerance="10"
     gridtolerance="10"
     guidetolerance="10"
     inkscape:pageopacity="0"
     inkscape:pageshadow="2"
     inkscape:window-width="1557"
     inkscape:window-height="888"
     id="namedview120"
     showgrid="false"
     inkscape:zoom="3.6794105"
     inkscape:cx="42.765081"
     inkscape:cy="46.480091"
     inkscape:window-x="1366"
     inkscape:window-y="24"
     inkscape:window-maximized="0"
     inkscape:current-layer="svg118" />
  <g
     id="g4776"
     transform="matrix(0.14542132,0,0,0.14902008,-0.00760907,-1.0636552)">
    <g
       id="g4638">
	<g
   id="g4636">
		<path
   id="path4634"
   d="M 477.858,8.533 H 34.142 C 15.317,8.533 0,23.851 0,42.675 v 281.591 c 0,4.71 3.823,8.533 8.533,8.533 h 494.933 c 4.71,0 8.533,-3.823 8.533,-8.533 V 42.675 C 512,23.851 496.683,8.533 477.858,8.533 Z m 17.075,307.2 H 17.067 V 42.675 C 17.067,33.254 24.73,25.6 34.142,25.6 h 443.716 c 9.412,0 17.075,7.654 17.075,17.075 z"
   inkscape:connector-curvature="0" />

	</g>

</g>
    <g
       id="g4644">
	<g
   id="g4642">
		<path
   id="path4640"
   d="M 503.467,315.733 H 8.533 c -4.71,0 -8.533,3.823 -8.533,8.533 v 42.658 c 0,18.825 15.317,34.142 34.142,34.142 h 443.716 c 18.825,0 34.142,-15.317 34.142,-34.142 v -42.658 c 0,-4.71 -3.823,-8.533 -8.533,-8.533 z m -8.534,51.192 c 0,9.421 -7.663,17.075 -17.075,17.075 H 34.142 C 24.73,384 17.067,376.346 17.067,366.925 V 332.8 h 477.867 v 34.125 z"
   inkscape:connector-curvature="0" />

	</g>

</g>
    <g
       id="g4650">
	<g
   id="g4648">
		<path
   id="path4646"
   d="m 281.6,349.867 h -51.2 c -4.71,0 -8.533,3.823 -8.533,8.533 0,4.71 3.823,8.533 8.533,8.533 h 51.2 c 4.71,0 8.533,-3.823 8.533,-8.533 0,-4.71 -3.823,-8.533 -8.533,-8.533 z"
   inkscape:connector-curvature="0" />

	</g>

</g>
    <g
       id="g4656">
	<g
   id="g4654">
		<path
   id="path4652"
   d="M 469.333,42.667 H 42.667 c -4.71,0 -8.533,3.823 -8.533,8.533 v 273.067 c 0,4.71 3.823,8.533 8.533,8.533 h 426.667 c 4.71,0 8.533,-3.823 8.533,-8.533 V 51.2 c 0,-4.71 -3.823,-8.533 -8.534,-8.533 z M 460.8,315.733 H 51.2 v -256 h 409.6 z"
   inkscape:connector-curvature="0" />

	</g>

</g>
    <g
       id="g4662">
	<g
   id="g4660">
		<path
   id="path4658"
   d="M 366.933,452.267 H 145.067 c -14.114,0 -25.6,11.486 -25.6,25.6 0,14.114 11.486,25.6 25.6,25.6 h 221.867 c 14.114,0 25.6,-11.486 25.6,-25.6 0,-14.114 -11.487,-25.6 -25.601,-25.6 z m 0,34.133 H 145.067 c -4.71,0 -8.533,-3.831 -8.533,-8.533 0,-4.702 3.823,-8.533 8.533,-8.533 h 221.867 c 4.71,0 8.533,3.831 8.533,8.533 0,4.702 -3.823,8.533 -8.534,8.533 z"
   inkscape:connector-curvature="0" />

	</g>

</g>
    <g
       id="g4668">
	<g
   id="g4666">
		<path
   id="path4664"
   d="m 349.867,452.267 c -28.314,0 -42.667,-20.096 -42.667,-59.733 0,-4.71 -3.823,-8.533 -8.533,-8.533 h -85.333 c -4.71,0 -8.533,3.823 -8.533,8.533 0,39.637 -14.353,59.733 -42.667,59.733 -4.71,0 -8.533,3.823 -8.533,8.533 0,4.71 3.823,8.533 8.533,8.533 h 187.733 c 4.71,0 8.533,-3.823 8.533,-8.533 0,-4.71 -3.823,-8.533 -8.533,-8.533 z m -146.168,0 c 10.505,-11.639 16.691,-28.971 17.937,-51.2 h 68.736 c 1.237,22.229 7.424,39.561 17.937,51.2 z"
   inkscape:connector-curvature="0" />

	</g>

</g>
    <g
       id="g4674">
	<g
   id="g4672">
		<path
   id="path4670"
   d="m 407.757,259.959 -20.599,-20.599 11.46,-11.46 c 2.125,-2.125 2.978,-5.214 2.244,-8.124 -0.734,-2.91 -2.944,-5.214 -5.82,-6.084 l -85.333,-25.6 c -3.012,-0.905 -6.263,-0.077 -8.482,2.142 -2.227,2.219 -3.046,5.478 -2.142,8.482 l 25.6,85.333 c 0.862,2.884 3.174,5.094 6.084,5.828 2.901,0.717 5.999,-0.12 8.124,-2.244 l 12.066,-12.075 20.599,20.608 c 1.596,1.604 3.772,2.5 6.033,2.5 2.261,0 4.437,-0.896 6.033,-2.5 l 24.132,-24.141 c 3.337,-3.336 3.337,-8.729 0.001,-12.066 z m -30.166,18.108 -18.756,-18.765 c -2.176,-2.176 -5.026,-3.26 -7.876,-3.26 -2.859,0 -5.709,1.092 -7.876,3.251 l -6.161,6.161 -16.939,-56.465 56.465,16.939 -6.605,6.605 c -1.818,1.826 -2.816,4.25 -2.816,6.827 0,2.586 1.007,5.026 2.833,6.835 l 19.797,19.797 z"
   inkscape:connector-curvature="0" />

	</g>

</g>
    <g
       id="g4680">
	<g
   id="g4678">
		<path
   id="path4676"
   d="M 358.4,76.8 H 119.467 c -4.71,0 -8.533,3.823 -8.533,8.533 V 128 c 0,4.71 3.823,8.533 8.533,8.533 H 358.4 c 4.71,0 8.533,-3.823 8.533,-8.533 V 85.333 c 0,-4.71 -3.823,-8.533 -8.533,-8.533 z m -8.533,42.667 H 128 v -25.6 h 221.867 z"
   inkscape:connector-curvature="0" />

	</g>

</g>
    <g
       id="g4686">
	<g
   id="g4684">
		<path
   id="path4682"
   d="M 221.867,170.667 H 153.6 c -4.71,0 -8.533,3.823 -8.533,8.533 v 34.133 c 0,4.71 3.823,8.533 8.533,8.533 h 68.267 c 4.71,0 8.533,-3.823 8.533,-8.533 V 179.2 c 0,-4.71 -3.823,-8.533 -8.533,-8.533 z m -8.534,34.133 h -51.2 v -17.067 h 51.2 z"
   inkscape:connector-curvature="0" />

	</g>

</g>
    <g
       id="g4692">
	<g
   id="g4690">
		<path
   id="path4688"
   d="M 358.4,76.8 H 119.467 c -4.71,0 -8.533,3.823 -8.533,8.533 v 162.133 c 0,4.71 3.823,8.533 8.533,8.533 h 203.145 c 2.705,0 5.239,-1.271 6.844,-3.439 1.613,-2.167 2.108,-4.966 1.331,-7.552 l -10.803,-36.019 35.968,10.795 c 2.586,0.777 5.385,0.282 7.543,-1.331 2.167,-1.604 3.439,-4.147 3.439,-6.844 V 85.333 C 366.933,80.623 363.11,76.8 358.4,76.8 Z M 349.867,200.141 309.7,188.092 c -3.012,-0.905 -6.263,-0.077 -8.482,2.142 -2.227,2.227 -3.046,5.478 -2.142,8.491 l 12.066,40.209 H 128 V 93.867 h 221.867 z"
   inkscape:connector-curvature="0" />

	</g>

</g>
    <g
       id="g4694">
</g>
    <g
       id="g4696">
</g>
    <g
       id="g4698">
</g>
    <g
       id="g4700">
</g>
    <g
       id="g4702">
</g>
    <g
       id="g4704">
</g>
    <g
       id="g4706">
</g>
    <g
       id="g4708">
</g>
    <g
       id="g4710">
</g>
    <g
       id="g4712">
</g>
    <g
       id="g4714">
</g>
    <g
       id="g4716">
</g>
    <g
       id="g4718">
</g>
    <g
       id="g4720">
</g>
    <g
       id="g4722">
</g>
  </g>
</svg>
