<?xml version="1.0" encoding="UTF-8" standalone="no"?>
<!-- Created with Inkscape (http://www.inkscape.org/) -->

<svg
   xmlns:dc="http://purl.org/dc/elements/1.1/"
   xmlns:cc="http://creativecommons.org/ns#"
   xmlns:rdf="http://www.w3.org/1999/02/22-rdf-syntax-ns#"
   xmlns:svg="http://www.w3.org/2000/svg"
   xmlns="http://www.w3.org/2000/svg"
   xmlns:sodipodi="http://sodipodi.sourceforge.net/DTD/sodipodi-0.dtd"
   xmlns:inkscape="http://www.inkscape.org/namespaces/inkscape"
   width="22.229193mm"
   height="19.901737mm"
   viewBox="0 0 22.229193 19.901737"
   version="1.1"
   id="svg8"
   inkscape:version="0.92.3 (2405546, 2018-03-11)"
   sodipodi:docname="mobile.svg">
  <defs
     id="defs2" />
  <sodipodi:namedview
     id="base"
     pagecolor="#ffffff"
     bordercolor="#666666"
     borderopacity="1.0"
     inkscape:pageopacity="0.0"
     inkscape:pageshadow="2"
     inkscape:zoom="7.2407734"
     inkscape:cx="50.575933"
     inkscape:cy="40.198138"
     inkscape:document-units="mm"
     inkscape:current-layer="mobile"
     showgrid="false"
     inkscape:window-width="1920"
     inkscape:window-height="1017"
     inkscape:window-x="1272"
     inkscape:window-y="-8"
     inkscape:window-maximized="1"
     fit-margin-top="0"
     fit-margin-left="0"
     fit-margin-right="0"
     fit-margin-bottom="0" />
  <metadata
     id="metadata5">
    <rdf:RDF>
      <cc:Work
         rdf:about="">
        <dc:format>image/svg+xml</dc:format>
        <dc:type
           rdf:resource="http://purl.org/dc/dcmitype/StillImage" />
        <dc:title />
      </cc:Work>
    </rdf:RDF>
  </metadata>
  <g
     inkscape:label="MainLayer"
     id="layer1"
     transform="translate(-23.527259,-146.87413)">
    <g
       id="server"
       transform="matrix(0.0390625,0,0,0.0390625,89.504498,64.275002)"
       inkscape:label="#server">
      <g
         id="g4571">
        <g
           id="g4569">
          <g
             id="g4567">
            <path
               id="path4537"
               d="m 119.467,162.133 h -51.2 c -4.713,0 -8.533,3.82 -8.533,8.533 0,4.713 3.82,8.533 8.533,8.533 h 51.2 c 4.713,0 8.533,-3.82 8.533,-8.533 0,-4.713 -3.82,-8.533 -8.533,-8.533 z"
               inkscape:connector-curvature="0" />
            <path
               id="path4539"
               d="m 119.467,196.267 h -51.2 c -4.713,0 -8.533,3.82 -8.533,8.533 0,4.713 3.82,8.533 8.533,8.533 h 51.2 c 4.713,0 8.533,-3.821 8.533,-8.533 0,-4.712 -3.82,-8.533 -8.533,-8.533 z"
               inkscape:connector-curvature="0" />
            <path
               id="path4541"
               d="m 93.867,247.467 c -18.851,0 -34.133,15.282 -34.133,34.133 0,18.851 15.282,34.133 34.133,34.133 18.842,-0.022 34.112,-15.291 34.133,-34.133 0,-18.851 -15.282,-34.133 -34.133,-34.133 z m 0,51.2 C 84.445,298.658 76.81,291.022 76.8,281.6 c 0,-9.426 7.641,-17.067 17.067,-17.067 9.426,0 17.067,7.641 17.067,17.067 -10e-4,9.426 -7.642,17.067 -17.067,17.067 z"
               inkscape:connector-curvature="0" />
            <path
               id="path4543"
               d="M 102.4,85.333 H 42.667 c -4.713,0 -8.533,3.821 -8.533,8.533 0,4.713 3.82,8.533 8.533,8.533 H 102.4 c 4.713,0 8.533,-3.821 8.533,-8.533 0,-4.712 -3.82,-8.533 -8.533,-8.533 z"
               inkscape:connector-curvature="0" />
            <path
               id="path4545"
               d="m 486.4,366.933 c 14.132,-0.015 25.585,-11.468 25.6,-25.6 V 68.267 C 511.985,54.135 500.532,42.682 486.4,42.667 H 366.933 V 25.6 C 366.918,11.468 355.465,0.015 341.333,0 H 170.667 c -14.132,0.015 -25.585,11.468 -25.6,25.6 V 42.667 H 25.6 C 11.468,42.682 0.015,54.135 0,68.267 v 273.067 c 0.015,14.132 11.468,25.585 25.6,25.6 H 85.333 V 460.8 H 68.267 C 58.845,460.809 51.21,468.445 51.2,477.867 H 8.533 C 3.82,477.867 0,481.687 0,486.4 c 0,4.713 3.82,8.533 8.533,8.533 H 51.2 c 0.009,9.422 7.645,17.057 17.067,17.067 h 51.2 c 9.422,-0.009 17.057,-7.645 17.067,-17.067 h 76.8 c 0.009,9.422 7.645,17.057 17.067,17.067 h 51.2 c 9.422,-0.009 17.057,-7.645 17.067,-17.067 h 76.8 c 0.009,9.422 7.645,17.057 17.067,17.067 h 51.2 c 9.422,-0.009 17.057,-7.645 17.067,-17.067 h 42.667 c 4.713,0 8.533,-3.82 8.533,-8.533 0,-4.713 -3.82,-8.533 -8.533,-8.533 H 460.8 C 460.791,468.445 453.155,460.81 443.733,460.8 H 426.666 V 366.933 Z M 366.933,102.4 h 59.733 c 4.713,0 8.533,-3.821 8.533,-8.533 0,-4.713 -3.82,-8.533 -8.533,-8.533 h -59.733 v -25.6 H 486.4 c 4.71,0.006 8.527,3.823 8.533,8.533 V 128 h -128 z m -204.8,-76.8 c 0.006,-4.71 3.823,-8.527 8.533,-8.533 h 170.667 c 4.71,0.006 8.527,3.823 8.533,8.533 v 76.8 H 162.133 Z m 0,93.867 H 349.866 V 384 c -0.006,4.71 -3.823,8.527 -8.533,8.533 H 170.667 c -4.71,-0.006 -8.527,-3.823 -8.533,-8.533 V 119.467 Z M 17.067,68.267 c 0.006,-4.71 3.823,-8.527 8.533,-8.533 h 119.467 v 25.6 h -8.533 c -4.713,0 -8.533,3.821 -8.533,8.533 0,4.713 3.82,8.533 8.533,8.533 h 8.533 V 128 h -128 V 68.267 Z m 8.533,281.6 c -4.71,-0.006 -8.527,-3.823 -8.533,-8.533 V 145.067 h 128 v 204.8 z m 42.667,145.066 v -17.067 h 51.2 l 0.006,8.503 -0.006,0.031 0.006,0.031 0.006,8.502 z m 145.066,-17.066 h -76.8 C 136.524,468.445 128.888,460.81 119.466,460.8 H 102.4 v -93.867 h 42.667 V 384 c 0.015,14.132 11.468,25.585 25.6,25.6 h 76.8 v 51.2 H 230.4 c -9.422,0.009 -17.057,7.645 -17.067,17.067 z m 17.067,17.066 v -17.067 h 51.2 l 0.006,8.503 -0.006,0.031 0.006,0.031 0.006,8.502 z m 145.067,-17.066 h -76.8 C 298.658,468.445 291.022,460.81 281.6,460.8 h -17.067 v -51.2 h 76.8 c 14.132,-0.015 25.585,-11.468 25.6,-25.6 V 366.933 H 409.6 V 460.8 h -17.067 c -9.421,0.009 -17.057,7.645 -17.066,17.067 z m 68.266,0 0.006,8.503 -0.006,0.031 0.006,0.031 0.006,8.502 h -51.213 v -17.067 z m -76.8,-128 v -204.8 h 128 v 196.267 c -0.006,4.71 -3.823,8.527 -8.533,8.533 z"
               inkscape:connector-curvature="0" />
            <path
               id="path4547"
               d="m 443.733,162.133 h -51.2 c -4.713,0 -8.533,3.82 -8.533,8.533 0,4.713 3.821,8.533 8.533,8.533 h 51.2 c 4.713,0 8.533,-3.82 8.533,-8.533 0,-4.713 -3.82,-8.533 -8.533,-8.533 z"
               inkscape:connector-curvature="0" />
            <path
               id="path4549"
               d="m 443.733,196.267 h -51.2 c -4.713,0 -8.533,3.82 -8.533,8.533 0,4.713 3.821,8.533 8.533,8.533 h 51.2 c 4.713,0 8.533,-3.821 8.533,-8.533 0,-4.712 -3.82,-8.533 -8.533,-8.533 z"
               inkscape:connector-curvature="0" />
            <path
               id="path4551"
               d="m 418.133,247.467 c -18.851,0 -34.133,15.282 -34.133,34.133 0,18.851 15.282,34.133 34.133,34.133 18.851,0 34.133,-15.282 34.133,-34.133 -0.021,-18.842 -15.29,-34.112 -34.133,-34.133 z m 0,51.2 c -9.426,0 -17.067,-7.641 -17.067,-17.067 0,-9.426 7.641,-17.067 17.067,-17.067 9.426,0 17.067,7.641 17.067,17.067 -0.009,9.422 -7.645,17.057 -17.067,17.067 z"
               inkscape:connector-curvature="0" />
            <path
               id="path4553"
               d="m 256,290.133 c -18.851,0 -34.133,15.282 -34.133,34.133 0,18.851 15.282,34.133 34.133,34.133 18.851,0 34.133,-15.282 34.133,-34.133 C 290.112,305.424 274.842,290.155 256,290.133 Z m 0,51.2 c -9.426,0 -17.067,-7.641 -17.067,-17.067 0,-9.426 7.641,-17.066 17.067,-17.066 9.426,0 17.067,7.641 17.067,17.067 -0.01,9.421 -7.645,17.057 -17.067,17.066 z"
               inkscape:connector-curvature="0" />
            <path
               id="path4555"
               d="M 469.333,85.333 H 460.8 c -4.713,0 -8.533,3.821 -8.533,8.533 0,4.713 3.821,8.533 8.533,8.533 h 8.533 c 4.713,0 8.533,-3.821 8.533,-8.533 0.001,-4.712 -3.82,-8.533 -8.533,-8.533 z"
               inkscape:connector-curvature="0" />
            <path
               id="path4557"
               d="m 281.6,51.2 h -93.867 c -4.713,0 -8.533,3.82 -8.533,8.533 0,4.713 3.82,8.533 8.533,8.533 H 281.6 c 4.713,0 8.533,-3.82 8.533,-8.533 0,-4.713 -3.82,-8.533 -8.533,-8.533 z"
               inkscape:connector-curvature="0" />
            <path
               id="path4559"
               d="m 324.267,51.2 h -8.533 c -4.713,0 -8.533,3.82 -8.533,8.533 0,4.713 3.82,8.533 8.533,8.533 h 8.533 c 4.713,0 8.533,-3.82 8.533,-8.533 0,-4.713 -3.821,-8.533 -8.533,-8.533 z"
               inkscape:connector-curvature="0" />
            <path
               id="path4561"
               d="m 213.333,153.6 h 85.333 c 4.713,0 8.533,-3.821 8.533,-8.533 0,-4.712 -3.82,-8.533 -8.533,-8.533 h -85.333 c -4.713,0 -8.533,3.82 -8.533,8.533 0,4.713 3.821,8.533 8.533,8.533 z"
               inkscape:connector-curvature="0" />
            <path
               id="path4563"
               d="m 213.333,187.733 h 85.333 c 4.713,0 8.533,-3.82 8.533,-8.533 0,-4.713 -3.82,-8.533 -8.533,-8.533 h -85.333 c -4.713,0 -8.533,3.82 -8.533,8.533 0,4.713 3.821,8.533 8.533,8.533 z"
               inkscape:connector-curvature="0" />
            <path
               id="path4565"
               d="m 213.333,221.867 h 85.333 c 4.713,0 8.533,-3.821 8.533,-8.533 0,-4.713 -3.82,-8.533 -8.533,-8.533 h -85.333 c -4.713,0 -8.533,3.821 -8.533,8.533 0,4.712 3.821,8.533 8.533,8.533 z"
               inkscape:connector-curvature="0" />
          </g>
        </g>
      </g>
      <g
         id="g4573" />
      <g
         id="g4575" />
      <g
         id="g4577" />
      <g
         id="g4579" />
      <g
         id="g4581" />
      <g
         id="g4583" />
      <g
         id="g4585" />
      <g
         id="g4587" />
      <g
         id="g4589" />
      <g
         id="g4591" />
      <g
         id="g4593" />
      <g
         id="g4595" />
      <g
         id="g4597" />
      <g
         id="g4599" />
      <g
         id="g4601" />
    </g>
    <g
       id="browser"
       transform="matrix(0.04807692,0,0,0.04807692,87.196846,144.51731)">
      <path
         id="path4645"
         d="M 476,48 H 36 A 28.031,28.031 0 0 0 8,76 v 360 a 28.031,28.031 0 0 0 28,28 h 440 a 28.031,28.031 0 0 0 28,-28 V 76 A 28.031,28.031 0 0 0 476,48 Z m 12,388 a 12.01,12.01 0 0 1 -12,12 H 36 A 12.01,12.01 0 0 1 24,436 V 112 H 488 Z M 488,96 H 24 V 76 A 12.01,12.01 0 0 1 36,64 h 440 a 12.01,12.01 0 0 1 12,12 z"
         inkscape:connector-curvature="0" />
      <path
         id="path4647"
         d="m 40,88 h 8 a 8,8 0 0 0 0,-16 h -8 a 8,8 0 0 0 0,16 z"
         inkscape:connector-curvature="0" />
      <path
         id="path4649"
         d="m 72,88 h 8 a 8,8 0 0 0 0,-16 h -8 a 8,8 0 0 0 0,16 z"
         inkscape:connector-curvature="0" />
      <path
         id="path4651"
         d="m 104,88 h 8 a 8,8 0 0 0 0,-16 h -8 a 8,8 0 0 0 0,16 z"
         inkscape:connector-curvature="0" />
      <path
         id="path4653"
         d="m 276,144 h -40 a 20.023,20.023 0 0 0 -20,20 v 40 a 20.023,20.023 0 0 0 20,20 h 40 a 20.023,20.023 0 0 0 20,-20 v -40 a 20.023,20.023 0 0 0 -20,-20 z m 4,60 a 4,4 0 0 1 -4,4 h -40 a 4,4 0 0 1 -4,-4 v -40 a 4,4 0 0 1 4,-4 h 40 a 4,4 0 0 1 4,4 z"
         inkscape:connector-curvature="0" />
      <path
         id="path4655"
         d="m 276,240 h -40 a 20.023,20.023 0 0 0 -20,20 v 40 a 20.023,20.023 0 0 0 20,20 h 40 a 20.023,20.023 0 0 0 20,-20 v -40 a 20.023,20.023 0 0 0 -20,-20 z m 4,60 a 4,4 0 0 1 -4,4 h -40 a 4,4 0 0 1 -4,-4 v -40 a 4,4 0 0 1 4,-4 h 40 a 4,4 0 0 1 4,4 z"
         inkscape:connector-curvature="0" />
      <path
         id="path4657"
         d="m 276,336 h -40 a 20.023,20.023 0 0 0 -20,20 v 40 a 20.023,20.023 0 0 0 20,20 h 40 a 20.023,20.023 0 0 0 20,-20 v -40 a 20.023,20.023 0 0 0 -20,-20 z m 4,60 a 4,4 0 0 1 -4,4 h -40 a 4,4 0 0 1 -4,-4 v -40 a 4,4 0 0 1 4,-4 h 40 a 4,4 0 0 1 4,4 z"
         inkscape:connector-curvature="0" />
      <path
         id="path4659"
         d="m 372,144 h -40 a 20.023,20.023 0 0 0 -20,20 v 40 a 20.023,20.023 0 0 0 20,20 h 40 a 20.023,20.023 0 0 0 20,-20 v -40 a 20.023,20.023 0 0 0 -20,-20 z m 4,60 a 4,4 0 0 1 -4,4 h -40 a 4,4 0 0 1 -4,-4 v -40 a 4,4 0 0 1 4,-4 h 40 a 4,4 0 0 1 4,4 z"
         inkscape:connector-curvature="0" />
      <path
         id="path4661"
         d="m 372,240 h -40 a 20.023,20.023 0 0 0 -20,20 v 40 a 20.023,20.023 0 0 0 20,20 h 40 a 20.023,20.023 0 0 0 20,-20 v -40 a 20.023,20.023 0 0 0 -20,-20 z m 4,60 a 4,4 0 0 1 -4,4 h -40 a 4,4 0 0 1 -4,-4 v -40 a 4,4 0 0 1 4,-4 h 40 a 4,4 0 0 1 4,4 z"
         inkscape:connector-curvature="0" />
      <path
         id="path4663"
         d="m 372,336 h -40 a 20.023,20.023 0 0 0 -20,20 v 40 a 20.023,20.023 0 0 0 20,20 h 40 a 20.023,20.023 0 0 0 20,-20 v -40 a 20.023,20.023 0 0 0 -20,-20 z m 4,60 a 4,4 0 0 1 -4,4 h -40 a 4,4 0 0 1 -4,-4 v -40 a 4,4 0 0 1 4,-4 h 40 a 4,4 0 0 1 4,4 z"
         inkscape:connector-curvature="0" />
      <path
         id="path4665"
         d="m 180,144 h -40 a 20.023,20.023 0 0 0 -20,20 v 40 a 20.023,20.023 0 0 0 20,20 h 40 a 20.023,20.023 0 0 0 20,-20 v -40 a 20.023,20.023 0 0 0 -20,-20 z m 4,60 a 4,4 0 0 1 -4,4 h -40 a 4,4 0 0 1 -4,-4 v -40 a 4,4 0 0 1 4,-4 h 40 a 4,4 0 0 1 4,4 z"
         inkscape:connector-curvature="0" />
      <path
         id="path4667"
         d="m 180,240 h -40 a 20.023,20.023 0 0 0 -20,20 v 40 a 20.023,20.023 0 0 0 20,20 h 40 a 20.023,20.023 0 0 0 20,-20 v -40 a 20.023,20.023 0 0 0 -20,-20 z m 4,60 a 4,4 0 0 1 -4,4 h -40 a 4,4 0 0 1 -4,-4 v -40 a 4,4 0 0 1 4,-4 h 40 a 4,4 0 0 1 4,4 z"
         inkscape:connector-curvature="0" />
      <path
         id="path4669"
         d="m 180,336 h -40 a 20.023,20.023 0 0 0 -20,20 v 40 a 20.023,20.023 0 0 0 20,20 h 40 a 20.023,20.023 0 0 0 20,-20 v -40 a 20.023,20.023 0 0 0 -20,-20 z m 4,60 a 4,4 0 0 1 -4,4 h -40 a 4,4 0 0 1 -4,-4 v -40 a 4,4 0 0 1 4,-4 h 40 a 4,4 0 0 1 4,4 z"
         inkscape:connector-curvature="0" />
    </g>
    <g
       id="network"
       transform="matrix(0.04019757,0,0,0.04019757,89.213979,105.71421)"
       inkscape:label="#network">
      <path
         id="path4767"
         d="M 493.213,56.983 H 389.609 c -4.142,0 -7.5,3.358 -7.5,7.5 0,4.142 3.358,7.5 7.5,7.5 h 103.604 c 2.088,0 3.787,1.699 3.787,3.787 v 22.456 h -19.117 c -4.142,0 -7.5,3.358 -7.5,7.5 0,4.142 3.358,7.5 7.5,7.5 H 497 v 14.333 h -19.117 c -4.142,0 -7.5,3.358 -7.5,7.5 0,4.142 3.358,7.5 7.5,7.5 H 497 v 14.333 h -19.117 c -4.142,0 -7.5,3.358 -7.5,7.5 0,4.142 3.358,7.5 7.5,7.5 H 497 v 14.333 h -19.117 c -4.142,0 -7.5,3.358 -7.5,7.5 0,4.142 3.358,7.5 7.5,7.5 H 497 v 22.456 c 0,2.088 -1.699,3.787 -3.787,3.787 H 105.137 c -4.142,0 -7.5,3.358 -7.5,7.5 0,4.142 3.358,7.5 7.5,7.5 h 143.352 v 62.925 h -14.378 c -4.142,0 -7.5,3.358 -7.5,7.5 v 80.863 h -46.538 c -9.772,0 -17.722,7.95 -17.722,17.722 v 4.156 H 85.566 v -9.857 c 0,-8.01 -6.516,-14.526 -14.526,-14.526 H 36.326 c -8.01,0 -14.526,6.516 -14.526,14.526 v 34.714 c 0,8.01 6.516,14.526 14.526,14.526 H 71.04 c 8.01,0 14.526,-6.516 14.526,-14.526 v -9.857 h 76.784 v 4.156 c 0,9.772 7.95,17.722 17.722,17.722 h 151.832 c 9.772,0 17.722,-7.95 17.722,-17.722 v -4.156 h 76.958 v 9.857 c 0,8.01 6.517,14.526 14.526,14.526 h 34.714 c 8.01,0 14.526,-6.516 14.526,-14.526 v -34.714 c 0,-8.01 -6.516,-14.526 -14.526,-14.526 H 441.11 c -8.01,0 -14.526,6.516 -14.526,14.526 v 9.857 h -76.958 v -4.156 c 0,-9.772 -7.95,-17.722 -17.722,-17.722 h -46.538 v -80.863 c 0,-4.142 -3.358,-7.5 -7.5,-7.5 h -14.378 v -62.925 h 229.724 c 10.359,0 18.787,-8.428 18.787,-18.787 V 75.77 C 512,65.411 503.572,56.983 493.213,56.983 Z M 70.566,440.017 H 36.8 v -33.766 h 33.766 z m 371.019,-33.766 h 33.766 v 33.766 h -33.766 z m -156.825,2.505 h 47.145 c 1.501,0 2.722,1.221 2.722,2.722 v 23.311 c 0,1.501 -1.221,2.722 -2.722,2.722 H 180.072 c -1.501,0 -2.722,-1.221 -2.722,-2.722 v -23.311 c 0,-1.501 1.221,-2.722 2.722,-2.722 h 47.145 c 7.936,0 14.393,-6.457 14.393,-14.394 v -73.969 h 28.756 v 73.969 c 0.001,7.937 6.458,14.394 14.394,14.394 z"
         inkscape:connector-curvature="0" />
      <path
         id="path4769"
         d="m 82.637,234.968 c 0,-4.142 -3.358,-7.5 -7.5,-7.5 H 18.787 C 16.699,227.468 15,225.769 15,223.681 V 75.77 c 0,-2.088 1.699,-3.787 3.787,-3.787 h 340.822 c 4.142,0 7.5,-3.358 7.5,-7.5 0,-4.142 -3.358,-7.5 -7.5,-7.5 H 18.787 C 8.428,56.983 0,65.411 0,75.77 v 147.912 c 0,10.359 8.428,18.787 18.787,18.787 h 56.351 c 4.141,-0.001 7.499,-3.359 7.499,-7.501 z"
         inkscape:connector-curvature="0" />
      <path
         id="path4771"
         d="M 94.25,104.158 H 57.823 c -4.142,0 -7.5,3.358 -7.5,7.5 v 16.639 h -7.932 c -4.142,0 -7.5,3.358 -7.5,7.5 v 51.997 c 0,4.142 3.358,7.5 7.5,7.5 h 67.291 c 4.142,0 7.5,-3.358 7.5,-7.5 v -51.997 c 0,-4.142 -3.358,-7.5 -7.5,-7.5 h -7.932 v -16.639 c 0,-4.142 -3.358,-7.5 -7.5,-7.5 z m 7.932,39.139 v 36.997 H 49.891 v -36.997 h 7.932 c 4.142,0 7.5,-3.358 7.5,-7.5 V 119.158 H 86.75 v 16.639 c 0,4.142 3.358,7.5 7.5,7.5 z"
         inkscape:connector-curvature="0" />
      <path
         id="path4773"
         d="M 197.877,104.158 H 161.45 c -4.142,0 -7.5,3.358 -7.5,7.5 v 16.639 h -7.932 c -4.142,0 -7.5,3.358 -7.5,7.5 v 51.997 c 0,4.142 3.358,7.5 7.5,7.5 h 67.291 c 4.142,0 7.5,-3.358 7.5,-7.5 v -51.997 c 0,-4.142 -3.358,-7.5 -7.5,-7.5 h -7.932 v -16.639 c 0,-4.142 -3.358,-7.5 -7.5,-7.5 z m 7.932,39.139 v 36.997 h -52.291 v -36.997 h 7.932 c 4.142,0 7.5,-3.358 7.5,-7.5 v -16.639 h 21.427 v 16.639 c 0,4.142 3.358,7.5 7.5,7.5 z"
         inkscape:connector-curvature="0" />
      <path
         id="path4775"
         d="m 301.502,104.158 h -36.427 c -4.142,0 -7.5,3.358 -7.5,7.5 v 16.639 h -7.932 c -4.142,0 -7.5,3.358 -7.5,7.5 v 51.997 c 0,4.142 3.358,7.5 7.5,7.5 h 67.291 c 4.142,0 7.5,-3.358 7.5,-7.5 v -51.997 c 0,-4.142 -3.358,-7.5 -7.5,-7.5 h -7.933 v -16.639 c 0.001,-4.142 -3.356,-7.5 -7.499,-7.5 z m 7.933,39.139 v 36.997 h -52.292 v -36.997 h 7.932 c 4.142,0 7.5,-3.358 7.5,-7.5 v -16.639 h 21.427 v 16.639 c 0,4.142 3.358,7.5 7.5,7.5 z"
         inkscape:connector-curvature="0" />
      <path
         id="path4777"
         d="m 405.129,104.158 h -36.427 c -4.142,0 -7.5,3.358 -7.5,7.5 v 16.639 h -7.932 c -4.142,0 -7.5,3.358 -7.5,7.5 v 51.997 c 0,4.142 3.358,7.5 7.5,7.5 h 67.291 c 4.142,0 7.5,-3.358 7.5,-7.5 v -51.997 c 0,-4.142 -3.358,-7.5 -7.5,-7.5 h -7.932 v -16.639 c 0,-4.142 -3.358,-7.5 -7.5,-7.5 z m 7.932,39.139 v 36.997 H 360.77 v -36.997 h 7.932 c 4.142,0 7.5,-3.358 7.5,-7.5 v -16.639 h 21.427 v 16.639 c 0,4.142 3.358,7.5 7.5,7.5 z"
         inkscape:connector-curvature="0" />
    </g>
    <g
       id="iot"
       transform="translate(-2.1166667)">
      <g
         transform="matrix(0.04166667,0,0,0.04166667,159.50596,146.825)"
         id="g4765">
        <g
           id="g4699">
          <g
             id="g4697" />
        </g>
        <g
           id="g4705">
          <g
             id="g4703">
            <path
               inkscape:connector-curvature="0"
               d="M 400,72 H 80 c -4.418,0 -8,3.582 -8,8 v 320 c 0,4.418 3.582,8 8,8 h 320 c 4.418,0 8,-3.582 8,-8 V 80 c 0,-4.418 -3.582,-8 -8,-8 z m -8,320 H 88 V 88 h 304 z"
               id="path4701" />
          </g>
        </g>
        <g
           id="g4707" />
        <g
           id="g4709" />
        <g
           id="g4711" />
        <g
           id="g4713" />
        <g
           id="g4715" />
        <g
           id="g4717" />
        <g
           id="g4719" />
        <g
           id="g4721" />
        <g
           id="g4723" />
        <g
           id="g4725" />
        <g
           id="g4727" />
        <g
           id="g4729" />
        <g
           id="g4731" />
        <g
           id="g4733" />
        <g
           id="g4735" />
      </g>
      <g
         id="g4803">
        <path
           transform="matrix(0.04166667,0,0,0.04166667,159.50596,146.825)"
           id="path4695"
           d="M 480,88 V 72 H 440 V 64 C 440,50.745 429.255,40 416,40 h -8 V 0 H 392 V 40 H 376 V 0 H 360 V 40 H 344 V 0 H 328 V 40 H 312 V 0 H 296 V 40 H 280 V 0 H 264 V 40 H 248 V 0 H 232 V 40 H 216 V 0 H 200 V 40 H 184 V 0 H 168 V 40 H 152 V 0 H 136 V 40 H 120 V 0 H 104 V 40 H 88 V 0 H 72 V 40 H 64 C 50.745,40 40,50.745 40,64 v 8 H 0 v 16 h 40 v 16 H 0 v 16 h 40 v 16 H 0 v 16 h 40 v 16 H 0 v 16 h 40 v 16 H 0 v 16 h 40 v 16 H 0 v 16 h 40 v 16 H 0 v 16 h 40 v 16 H 0 v 16 h 40 v 16 H 0 v 16 h 40 v 16 H 0 v 16 h 40 v 16 H 0 v 16 h 40 v 8 c 0,13.255 10.745,24 24,24 h 8 v 40 h 16 v -40 h 16 v 40 h 16 v -40 h 16 v 40 h 16 v -40 h 16 v 40 h 16 v -40 h 16 v 40 h 16 v -40 h 16 v 40 h 16 v -40 h 16 v 40 h 16 v -40 h 16 v 40 h 16 v -40 h 16 v 40 h 16 v -40 h 16 v 40 h 16 v -40 h 16 v 40 h 16 v -40 h 8 c 13.255,0 24,-10.745 24,-24 v -8 h 40 v -16 h -40 v -16 h 40 v -16 h -40 v -16 h 40 v -16 h -40 v -16 h 40 v -16 h -40 v -16 h 40 v -16 h -40 v -16 h 40 v -16 h -40 v -16 h 40 v -16 h -40 v -16 h 40 v -16 h -40 v -16 h 40 v -16 h -40 v -16 h 40 V 104 H 440 V 88 Z m -56,328 c 0,4.418 -3.582,8 -8,8 H 64 c -4.418,0 -8,-3.582 -8,-8 V 64 c 0,-4.418 3.582,-8 8,-8 h 352 c 4.418,0 8,3.582 8,8 z"
           inkscape:connector-curvature="0" />
        <text
           xml:space="preserve"
           style="font-style:normal;font-weight:normal;font-size:10.58333302px;line-height:1.25;font-family:sans-serif;letter-spacing:0px;word-spacing:0px;fill:#000000;fill-opacity:1;stroke:none;stroke-width:0.26458332"
           x="165.55064"
           y="158.36392"
           id="text4797"><tspan
             sodipodi:role="line"
             id="tspan4795"
             x="165.55064"
             y="158.36392"
             style="font-size:4.23333311px;stroke-width:0.26458332">IOT</tspan></text>
      </g>
    </g>
    <g
       id="mobile"
       style="stroke:none">
      <g
         transform="matrix(0.03030691,0,0,0.03030691,33.876143,150.65394)"
         id="Smartphone"
         style="stroke:#000000;stroke-width:9.89873314;stroke-miterlimit:4;stroke-dasharray:none;stroke-opacity:0">
        <path
           style="stroke:#000000;stroke-width:9.89873314;stroke-miterlimit:4;stroke-dasharray:none;stroke-opacity:0"
           d="M 351.05664,3.8847656 C 285.86294,4.2690639 220.63945,3.6985179 155.44922,4.1660156 132.29418,6.1901121 113.55478,28.91857 116.00123,52.0625 c 0.20384,139.1188 -0.42172,278.25599 0.32689,417.36328 2.30417,23.25801 25.70776,41.3054 48.75586,38.57162 64.51383,-0.29569 129.06655,0.61728 193.55664,-0.47006 22.73111,-2.97207 39.99857,-25.97732 37.35855,-48.60742 C 395.79357,320.14033 396.42134,181.3423 395.67188,42.574219 393.45375,20.830732 372.78854,3.2263634 351.05664,3.8847656 Z m -4.37305,23.8945314 c 10.32968,-0.995335 22.50958,4.246465 24.55274,15.363281 2.06601,12.534978 -0.0803,25.243443 0.75989,37.914062 -0.18858,128.88385 0.40374,257.80097 -0.30872,386.66406 -1.88516,11.54029 -14.73177,18.32085 -25.69922,16.27774 -63.49664,-0.31352 -127.04684,0.64825 -190.50976,-0.50039 -11.62295,-2.35092 -17.52135,-15.56592 -15.47791,-26.51367 C 140.14005,319.6556 139.71613,182.31117 140.2207,44.992188 141.74166,32.856569 154.6795,26.011125 166.03906,28 c 5.23177,0.461044 11.90638,-0.889056 16.3086,0.613281 2.86179,11.432408 3.22168,23.787536 8.06445,34.572266 6.15092,7.840456 17.19344,3.885159 25.59375,4.81177 33.16035,-0.344025 66.43082,0.707596 99.52539,-0.526614 8.90824,-2.626499 9.1471,-13.5854 10.58594,-21.087891 1.74786,-5.805767 1.77325,-13.626091 4.40039,-18.216796 5.39211,0.21902 10.7768,-0.333064 16.16601,-0.386719 z M 305.36328,28 c -2.22313,4.735588 -0.30524,14.522167 -5.19922,16 -30.10937,0 -60.21875,0 -90.32812,0 0.33001,-4.73551 -5.50057,-14.52235 -1.19727,-16 32.24154,0 64.48307,0 96.72461,0 z"
           id="path4518"
           inkscape:connector-curvature="0" />
        <path
           inkscape:connector-curvature="0"
           d="m 208,456 h -48 a 8,8 0 0 0 0,16 h 48 a 8,8 0 0 0 0,-16 z"
           id="path4520"
           style="stroke:#000000;stroke-width:9.89873314;stroke-miterlimit:4;stroke-dasharray:none;stroke-opacity:0" />
        <path
           inkscape:connector-curvature="0"
           d="m 240,456 h -8 a 8,8 0 0 0 0,16 h 8 a 8,8 0 0 0 0,-16 z"
           id="path4522"
           style="stroke:#000000;stroke-width:9.89873314;stroke-miterlimit:4;stroke-dasharray:none;stroke-opacity:0" />
      </g>
      <g
         transform="matrix(0.19886386,0,0,0.19886386,-30.831509,79.624942)"
         id="g4890"
         style="stroke:none;stroke-opacity:1;stroke-width:0.50285658;stroke-miterlimit:4;stroke-dasharray:none">
        <g
           transform="matrix(0.19667405,0,0,0.19667405,266.91933,338.16698)"
           id="g4825"
           style="stroke:none;stroke-opacity:1;stroke-width:2.55680189;stroke-miterlimit:4;stroke-dasharray:none">
          <g
             id="g4823"
             style="stroke:none;stroke-opacity:1;stroke-width:2.55680189;stroke-miterlimit:4;stroke-dasharray:none">
            <path
               inkscape:connector-curvature="0"
               d="M 338.842,456.093 V 47.21 c 0,-1.979 -1.605,-3.586 -3.586,-3.586 H 73.397 c -1.979,0 -3.586,1.606 -3.586,3.586 v 408.883 c 0,1.979 1.606,3.586 3.586,3.586 h 261.859 c 1.981,0 3.586,-1.607 3.586,-3.586 z m -7.172,-3.586 H 76.983 V 50.796 H 331.67 Z"
               id="path4805"
               style="stroke:none;stroke-opacity:1;stroke-width:2.55680189;stroke-miterlimit:4;stroke-dasharray:none" />
            <path
               inkscape:connector-curvature="0"
               d="M 214.195,466.851 H 189.85 c -4.896,0 -8.884,3.987 -8.884,8.884 v 2.027 c 0,4.896 3.988,8.884 8.884,8.884 h 24.346 c 4.896,0 8.884,-3.988 8.884,-8.884 v -2.027 c -0.001,-4.897 -3.988,-8.884 -8.885,-8.884 z m 4.103,10.911 c 0,2.266 -1.836,4.102 -4.103,4.102 H 189.85 c -2.257,0 -4.103,-1.836 -4.103,-4.102 v -2.027 c 0,-2.267 1.836,-4.103 4.103,-4.103 h 24.346 c 2.257,0 4.103,1.836 4.103,4.103 v 2.027 z"
               id="path4807"
               style="stroke:none;stroke-opacity:1;stroke-width:2.55680189;stroke-miterlimit:4;stroke-dasharray:none" />
            <path
               inkscape:connector-curvature="0"
               d="m 132.168,470.905 h -18.589 c -0.583,0 -1.042,0.469 -1.042,1.042 v 9.601 c 0,0.574 0.459,1.043 1.042,1.043 0.574,0 1.033,-0.469 1.033,-1.043 v -8.567 h 16.514 v 8.567 c 0,0.574 0.469,1.043 1.042,1.043 0.564,0 1.033,-0.469 1.033,-1.043 v -9.601 c 0,-0.573 -0.469,-1.042 -1.033,-1.042 z"
               id="path4809"
               style="stroke:none;stroke-opacity:1;stroke-width:2.55680189;stroke-miterlimit:4;stroke-dasharray:none" />
            <path
               inkscape:connector-curvature="0"
               d="m 127.158,475.705 h -8.587 c -0.574,0 -1.033,0.479 -1.033,1.043 v 0 c 0,0.363 0.22,0.631 0.498,0.812 0.163,0.105 0.325,0.22 0.535,0.22 h 8.587 c 0.21,0 0.373,-0.114 0.536,-0.22 0.287,-0.182 0.507,-0.449 0.507,-0.812 v 0 c -0.001,-0.564 -0.46,-1.043 -1.043,-1.043 z"
               id="path4811"
               style="stroke:none;stroke-opacity:1;stroke-width:2.55680189;stroke-miterlimit:4;stroke-dasharray:none" />
            <path
               inkscape:connector-curvature="0"
               d="m 290.122,471.115 h -7.152 l 0.211,-0.507 -3.645,1.54 3.645,1.539 -0.211,-0.497 h 7.152 c 2.172,0 3.93,1.702 3.93,3.806 0,2.104 -1.758,3.806 -3.93,3.806 h -7.01 c -0.582,0 -1.031,0.469 -1.031,1.033 0,0.574 0.459,1.042 1.031,1.042 h 7.01 c 3.309,0 5.996,-2.648 5.996,-5.89 0.009,-3.232 -2.688,-5.872 -5.996,-5.872 z"
               id="path4813"
               style="stroke:none;stroke-opacity:1;stroke-width:2.55680189;stroke-miterlimit:4;stroke-dasharray:none" />
            <circle
               cx="235.83501"
               cy="27.014"
               r="2.027"
               id="circle4815"
               style="stroke:none;stroke-opacity:1;stroke-width:2.55680189;stroke-miterlimit:4;stroke-dasharray:none" />
            <circle
               cx="282.5"
               cy="27.014"
               r="3.7869999"
               id="circle4817"
               style="stroke:none;stroke-opacity:1;stroke-width:2.55680189;stroke-miterlimit:4;stroke-dasharray:none" />
            <path
               style="stroke:none;stroke-width:2.5568018;stroke-miterlimit:4;stroke-dasharray:none;stroke-opacity:1"
               d="m 77.595703,-3.984375 c -27.01652,-0.1060888 -51.055044,25.37695 -48.787102,52.439445 -0.174224,139.72762 -0.299697,279.46689 0.07226,419.18751 2.012137,26.09811 27.334491,47.64101 53.480467,45.14723 82.754774,-0.0805 165.533464,0.45736 248.273444,-0.2859 25.29752,-2.64127 45.90369,-27.15995 43.91136,-52.58203 C 374.37325,319.98586 374.96956,180.02905 374.2356,40.106036 371.69932,14.732977 347.12813,-5.9842601 321.64648,-3.9850049 240.29622,-4.0054949 158.94597,-4.0039897 77.595703,-3.984375 Z M 234.25781,18.318359 c 31.93253,0.232314 63.93166,-0.397826 95.82227,0.53711 14.41742,2.735546 24.35241,17.973368 22.14566,32.296875 -0.18449,138.618606 0.37948,277.257186 -0.2941,415.863276 -2.01032,15.05281 -17.66321,25.76152 -32.51172,23.48689 C 237.56639,490.24997 155.67191,491.022 73.84375,490.10547 59.049831,487.68783 48.785718,472.18343 51.024263,457.68164 51.205063,319.11454 50.652295,180.52686 51.3125,41.972656 53.201177,27.214849 68.232614,16.396377 82.83203,18.346515 c 50.47526,0.05374 100.95052,-0.03182 151.42578,-0.02816 z"
               id="path4821"
               inkscape:connector-curvature="0" />
          </g>
        </g>
        <g
           id="g4827"
           style="stroke:none;stroke-opacity:1;stroke-width:0.50285658;stroke-miterlimit:4;stroke-dasharray:none" />
        <g
           id="g4829"
           style="stroke:none;stroke-opacity:1;stroke-width:0.50285658;stroke-miterlimit:4;stroke-dasharray:none" />
        <g
           id="g4831"
           style="stroke:none;stroke-opacity:1;stroke-width:0.50285658;stroke-miterlimit:4;stroke-dasharray:none" />
        <g
           id="g4833"
           style="stroke:none;stroke-opacity:1;stroke-width:0.50285658;stroke-miterlimit:4;stroke-dasharray:none" />
        <g
           id="g4835"
           style="stroke:none;stroke-opacity:1;stroke-width:0.50285658;stroke-miterlimit:4;stroke-dasharray:none" />
        <g
           id="g4837"
           style="stroke:none;stroke-opacity:1;stroke-width:0.50285658;stroke-miterlimit:4;stroke-dasharray:none" />
        <g
           id="g4839"
           style="stroke:none;stroke-opacity:1;stroke-width:0.50285658;stroke-miterlimit:4;stroke-dasharray:none" />
        <g
           id="g4841"
           style="stroke:none;stroke-opacity:1;stroke-width:0.50285658;stroke-miterlimit:4;stroke-dasharray:none" />
        <g
           id="g4843"
           style="stroke:none;stroke-opacity:1;stroke-width:0.50285658;stroke-miterlimit:4;stroke-dasharray:none" />
        <g
           id="g4845"
           style="stroke:none;stroke-opacity:1;stroke-width:0.50285658;stroke-miterlimit:4;stroke-dasharray:none" />
        <g
           id="g4847"
           style="stroke:none;stroke-opacity:1;stroke-width:0.50285658;stroke-miterlimit:4;stroke-dasharray:none" />
        <g
           id="g4849"
           style="stroke:none;stroke-opacity:1;stroke-width:0.50285658;stroke-miterlimit:4;stroke-dasharray:none" />
        <g
           id="g4851"
           style="stroke:none;stroke-opacity:1;stroke-width:0.50285658;stroke-miterlimit:4;stroke-dasharray:none" />
        <g
           id="g4853"
           style="stroke:none;stroke-opacity:1;stroke-width:0.50285658;stroke-miterlimit:4;stroke-dasharray:none" />
        <g
           id="g4855"
           style="stroke:none;stroke-opacity:1;stroke-width:0.50285658;stroke-miterlimit:4;stroke-dasharray:none" />
      </g>
    </g>
    <path
       style="fill:none;stroke:#000000;stroke-width:0.205;stroke-linecap:butt;stroke-linejoin:miter;stroke-miterlimit:4;stroke-dasharray:none;stroke-dashoffset:0;stroke-opacity:1"
       d="M 99.562833,83.608322 V 108.10726"
       id="line-1"
       inkscape:connector-curvature="0" />
    <path
       style="fill:none;stroke:#000000;stroke-width:0.205;stroke-linecap:butt;stroke-linejoin:miter;stroke-miterlimit:4;stroke-dasharray:none;stroke-dashoffset:0;stroke-opacity:1"
       d="m 99.507193,123.72602 v 23.22941"
       id="line-3"
       inkscape:connector-curvature="0"
       inkscape:label="#line-3" />
    <path
       style="fill:none;stroke:#000000;stroke-width:0.205;stroke-linecap:butt;stroke-linejoin:miter;stroke-miterlimit:4;stroke-dasharray:none;stroke-dashoffset:0;stroke-opacity:1"
       d="m 108.77332,123.56433 55.3248,23.22941"
       id="line-4"
       inkscape:connector-curvature="0"
       sodipodi:nodetypes="cc" />
  </g>
</svg>
