<?xml version="1.0" encoding="UTF-8" standalone="no"?>
<svg xmlns:dc="http://purl.org/dc/elements/1.1/" xmlns:cc="http://creativecommons.org/ns#" xmlns:rdf="http://www.w3.org/1999/02/22-rdf-syntax-ns#" xmlns:svg="http://www.w3.org/2000/svg" xmlns="http://www.w3.org/2000/svg" xmlns:sodipodi="http://sodipodi.sourceforge.net/DTD/sodipodi-0.dtd" xmlns:inkscape="http://www.inkscape.org/namespaces/inkscape" height="24mm" viewBox="0 0 74 74" width="24mm" version="1.1" id="svg118" sodipodi:docname="stack.svg" inkscape:version="0.92.3 (2405546, 2018-03-11)">
  <metadata id="metadata124">
    <rdf:RDF>
      <cc:Work rdf:about="">
        <dc:format>image/svg+xml</dc:format>
        <dc:type rdf:resource="http://purl.org/dc/dcmitype/StillImage" />
      </cc:Work>
    </rdf:RDF>
  </metadata>
  <defs id="defs122" />
  <sodipodi:namedview pagecolor="#ffffff" bordercolor="#666666" borderopacity="1" objecttolerance="10" gridtolerance="10" guidetolerance="10" inkscape:pageopacity="0" inkscape:pageshadow="2" inkscape:window-width="1920" inkscape:window-height="1017" id="namedview120" showgrid="false" inkscape:zoom="9.3486111" inkscape:cx="51.596955" inkscape:cy="45.354331" inkscape:window-x="1272" inkscape:window-y="-8" inkscape:window-maximized="1" inkscape:current-layer="svg118" />
  <path style="display:inline;opacity:1;stroke:none;stroke-width:3.47500014;stroke-miterlimit:4;stroke-dasharray:none;stroke-dashoffset:0;stroke-opacity:1" d="m 45.546875,1.84375 a 43.624716,43.624716 0 0 0 -43.625,43.625 43.624716,43.624716 0 0 0 43.625,43.625 43.624716,43.624716 0 0 0 43.625,-43.625 43.624716,43.624716 0 0 0 -43.625,-43.625 z m 0,3.4589844 A 40.165488,40.165488 0 0 1 85.712891,45.46875 40.165488,40.165488 0 0 1 45.546875,85.634766 40.165488,40.165488 0 0 1 5.3808594,45.46875 40.165488,40.165488 0 0 1 45.546875,5.3027344 Z" transform="scale(0.81579859)" id="path962" inkscape:connector-curvature="0" inkscape:label="path962" />
  <path style="color:#000000;font-style:normal;font-variant:normal;font-weight:normal;font-stretch:normal;font-size:medium;line-height:normal;font-family:sans-serif;font-variant-ligatures:normal;font-variant-position:normal;font-variant-caps:normal;font-variant-numeric:normal;font-variant-alternates:normal;font-feature-settings:normal;text-indent:0;text-align:start;text-decoration:none;text-decoration-line:none;text-decoration-style:solid;text-decoration-color:#000000;letter-spacing:normal;word-spacing:normal;text-transform:none;writing-mode:lr-tb;direction:ltr;text-orientation:mixed;dominant-baseline:auto;baseline-shift:baseline;text-anchor:start;white-space:normal;shape-padding:0;clip-rule:nonzero;display:inline;overflow:visible;visibility:visible;opacity:1;isolation:auto;mix-blend-mode:normal;color-interpolation:sRGB;color-interpolation-filters:linearRGB;solid-color:#000000;solid-opacity:1;vector-effect:none;color-rendering:auto;image-rendering:auto;shape-rendering:auto;text-rendering:auto;enable-background:accumulate" d="m 34.152344,20.326172 20.298828,5.001953 c 0.447095,0.11027 0.759766,0.507808 0.759766,0.96875 v 0.238281 c 8e-4,2.320258 -0.01649,4.169518 -0.66211,5.666016 -0.645619,1.496498 -1.908388,2.744281 -4.669922,3.908203 -1.916007,0.807488 -4.615734,2.033796 -6.849609,3.064453 -1.116938,0.515328 -2.116628,0.980734 -2.841797,1.320313 -0.362584,0.169789 -0.655748,0.307443 -0.861328,0.404297 -0.10279,0.04843 -0.183923,0.08664 -0.240234,0.113281 -0.05195,0.02458 -0.05303,0.02469 -0.09375,0.04492 -0.130459,0.06231 -0.278228,0.0957 -0.423829,0.0957 -0.097,0 -0.194841,-0.01548 -0.292968,-0.04492 h -0.002 L 17.882812,34.832031 c -0.403401,-0.124433 -0.684049,-0.483721 -0.705078,-0.904297 -0.02105,-0.421032 0.220789,-0.804078 0.609375,-0.96875 l 11.453125,-4.828125 c 1.175626,-0.495775 2.149956,-1.111582 2.779297,-2.183593 0.629341,-1.072012 0.896485,-2.516906 0.896485,-4.652344 0,-0.306766 0.142464,-0.595494 0.382812,-0.783203 v -0.002 c 0.241092,-0.189287 0.553046,-0.25633 0.853516,-0.183594 z" id="path6462" />
  <path style="color:#000000;font-style:normal;font-variant:normal;font-weight:normal;font-stretch:normal;font-size:medium;line-height:normal;font-family:sans-serif;font-variant-ligatures:normal;font-variant-position:normal;font-variant-caps:normal;font-variant-numeric:normal;font-variant-alternates:normal;font-feature-settings:normal;text-indent:0;text-align:start;text-decoration:none;text-decoration-line:none;text-decoration-style:solid;text-decoration-color:#000000;letter-spacing:normal;word-spacing:normal;text-transform:none;writing-mode:lr-tb;direction:ltr;text-orientation:mixed;dominant-baseline:auto;baseline-shift:baseline;text-anchor:start;white-space:normal;shape-padding:0;clip-rule:nonzero;display:inline;overflow:visible;visibility:visible;opacity:1;isolation:auto;mix-blend-mode:normal;color-interpolation:sRGB;color-interpolation-filters:linearRGB;solid-color:#000000;solid-opacity:1;vector-effect:none;color-rendering:auto;image-rendering:auto;shape-rendering:auto;text-rendering:auto;enable-background:accumulate" d="m 34.894531,22.564453 -0.0625,0.658203 c -0.291924,3.10378 -1.336177,5.281142 -4.814453,6.748047 l -8.925781,3.761719 1.5,0.460937 15.900391,4.894532 0.199218,-0.09375 c 1.742053,-0.81933 7.159158,-3.35168 10.41211,-4.722657 1.777655,-0.749332 2.85801,-1.46691 3.451172,-2.546875 0.593161,-1.079965 0.648718,-2.365437 0.658203,-4.195312 l 0.002,-0.449219 z" id="path6460" />
  <path style="color:#000000;font-style:normal;font-variant:normal;font-weight:normal;font-stretch:normal;font-size:medium;line-height:normal;font-family:sans-serif;font-variant-ligatures:normal;font-variant-position:normal;font-variant-caps:normal;font-variant-numeric:normal;font-variant-alternates:normal;font-feature-settings:normal;text-indent:0;text-align:start;text-decoration:none;text-decoration-line:none;text-decoration-style:solid;text-decoration-color:#000000;letter-spacing:normal;word-spacing:normal;text-transform:none;writing-mode:lr-tb;direction:ltr;text-orientation:mixed;dominant-baseline:auto;baseline-shift:baseline;text-anchor:start;white-space:normal;shape-padding:0;clip-rule:nonzero;display:inline;overflow:visible;visibility:visible;opacity:1;isolation:auto;mix-blend-mode:normal;color-interpolation:sRGB;color-interpolation-filters:linearRGB;solid-color:#000000;solid-opacity:1;vector-effect:none;color-rendering:auto;image-rendering:auto;shape-rendering:auto;text-rendering:auto;enable-background:accumulate" d="m 56.179688,37.646484 c 0.236732,0.0895 0.439156,0.271528 0.554687,0.525391 0.231572,0.508651 0.01289,1.088587 -0.496094,1.320313 l -17.255859,7.845703 h -0.002 c -0.12998,0.05953 -0.269765,0.08984 -0.41211,0.08984 -0.09702,0 -0.194883,-0.01548 -0.292968,-0.04492 h -0.002 l -20.390626,-6.27539 h -0.002 c -0.532749,-0.165372 -0.8241,-0.716039 -0.660156,-1.246094 0.164895,-0.534138 0.715201,-0.827717 1.244141,-0.662109 h 0.002 l 20.035156,6.166015 0.197266,-0.08984 16.71289,-7.597657 c 0.259317,-0.117407 0.530846,-0.120745 0.767579,-0.03125 z" id="path6454" />
  <path style="color:#000000;font-style:normal;font-variant:normal;font-weight:normal;font-stretch:normal;font-size:medium;line-height:normal;font-family:sans-serif;font-variant-ligatures:normal;font-variant-position:normal;font-variant-caps:normal;font-variant-numeric:normal;font-variant-alternates:normal;font-feature-settings:normal;text-indent:0;text-align:start;text-decoration:none;text-decoration-line:none;text-decoration-style:solid;text-decoration-color:#000000;letter-spacing:normal;word-spacing:normal;text-transform:none;writing-mode:lr-tb;direction:ltr;text-orientation:mixed;dominant-baseline:auto;baseline-shift:baseline;text-anchor:start;white-space:normal;shape-padding:0;clip-rule:nonzero;display:inline;overflow:visible;visibility:visible;opacity:1;isolation:auto;mix-blend-mode:normal;color-interpolation:sRGB;color-interpolation-filters:linearRGB;solid-color:#000000;solid-opacity:1;vector-effect:none;color-rendering:auto;image-rendering:auto;shape-rendering:auto;text-rendering:auto;enable-background:accumulate" d="m 56.181641,43.919922 c 0.236424,0.08993 0.435914,0.273841 0.550781,0.527344 h 0.002 c 0.231454,0.50839 0.01339,1.090258 -0.494141,1.320312 l -17.257812,7.845703 h -0.002 c -0.129982,0.05953 -0.269767,0.08789 -0.41211,0.08789 -0.097,0 -0.194862,-0.01353 -0.292968,-0.04297 h -0.002 L 17.882812,47.382812 h -0.002 c -0.532554,-0.165313 -0.823348,-0.717169 -0.660156,-1.248046 0.163436,-0.532681 0.715397,-0.825703 1.244141,-0.660157 h 0.002 l 20.035156,6.166016 16.912109,-7.6875 v -0.002 c 0.258286,-0.118466 0.531154,-0.121177 0.767579,-0.03125 z" id="path814-1" />
</svg>
