<?xml version="1.0" encoding="UTF-8" standalone="no"?>
<svg xmlns:dc="http://purl.org/dc/elements/1.1/" xmlns:cc="http://creativecommons.org/ns#" xmlns:rdf="http://www.w3.org/1999/02/22-rdf-syntax-ns#" xmlns:svg="http://www.w3.org/2000/svg" xmlns="http://www.w3.org/2000/svg" xmlns:sodipodi="http://sodipodi.sourceforge.net/DTD/sodipodi-0.dtd" xmlns:inkscape="http://www.inkscape.org/namespaces/inkscape" height="24mm" viewBox="0 0 74 74" width="24mm" version="1.1" id="svg118" sodipodi:docname="tech-skills.svg" inkscape:version="0.92.3 (2405546, 2018-03-11)">
  <metadata id="metadata124">
    <rdf:RDF>
      <cc:Work rdf:about="">
        <dc:format>image/svg+xml</dc:format>
        <dc:type rdf:resource="http://purl.org/dc/dcmitype/StillImage" />
      </cc:Work>
    </rdf:RDF>
  </metadata>
  <defs id="defs122" />
  <sodipodi:namedview pagecolor="#ffffff" bordercolor="#666666" borderopacity="1" objecttolerance="10" gridtolerance="10" guidetolerance="10" inkscape:pageopacity="0" inkscape:pageshadow="2" inkscape:window-width="1920" inkscape:window-height="1017" id="namedview120" showgrid="false" inkscape:zoom="5.2034722" inkscape:cx="43.910878" inkscape:cy="50.548448" inkscape:window-x="1272" inkscape:window-y="-8" inkscape:window-maximized="1" inkscape:current-layer="g960" />
  <g id="g960" transform="matrix(0.10626239,0,0,0.10626239,13.128542,9.2706867)">
    <path id="path931" d="M 243.29297,1.023438 C 210.32031,-1.714844 99.746094,-4.617188 60.679688,73.472656 41.359375,112.12891 41.605469,180.48828 41.699219,188.21875 c -0.07422,0.47266 -0.199219,0.9375 -0.375,1.38281 L 2.925781,254.8125 c -0.152343,0.25781 -0.292969,0.52344 -0.417969,0.79297 -3.332031,7.33984 -2.710937,15.86719 1.652344,22.64062 4.363282,6.77735 11.871094,10.8711 19.929688,10.8711 3.660156,0 6.628906,2.96875 6.628906,6.6289 v 2.33203 c 0.0039,0.53907 -0.0625,1.07813 -0.195312,1.60157 l -7.597657,30.40625 c -1.617187,6.47656 -0.429687,13.33593 3.269531,18.89062 l 11.945313,17.87891 c 1.035156,1.55859 1.367187,3.47656 0.914063,5.28906 l -3.96875,15.89063 c -1.625,6.50781 -0.421876,13.40234 3.320312,18.96875 3.742188,5.5664 9.667969,9.28906 16.308594,10.24218 l 105.878906,15.16407 c 3.26172,0.48437 5.67969,3.27343 5.69531,6.57031 v 64.2539 c 0,4.71485 3.82031,8.53516 8.53125,8.53516 h 193.61328 c 3.10157,-0.004 5.95703,-1.6875 7.45703,-4.40234 1.5,-2.71094 1.41407,-6.02344 -0.23046,-8.65625 -0.44922,-0.73047 -45.71875,-74.39063 -18.66797,-137.51172 7.71875,-17.33203 17.21484,-33.81641 28.32812,-49.19531 C 405,282.60547 425.34375,252.20312 425.31641,213.46875 434.92578,88.898438 368.57031,11.460938 243.29297,1.023438 Z M 408.30078,212.82031 c 0,34.19141 -18.03906,61.14844 -37.13672,89.69531 -11.75,16.30469 -21.78125,33.77735 -29.93359,52.14454 -23.51172,54.84375 -0.0703,114.26171 12.79687,140.04296 H 183.36328 v -55.75781 c -0.0508,-11.77734 -8.69922,-21.75 -20.35156,-23.45703 L 57.195312,400.35937 c -1.855468,-0.26953 -3.515624,-1.3125 -4.5625,-2.86718 -1.046874,-1.5586 -1.382812,-3.48828 -0.929687,-5.3086 l 3.964844,-15.89062 c 1.621093,-6.48047 0.433593,-13.33985 -3.265625,-18.90235 l -11.949219,-17.875 c -1.03125,-1.55859 -1.363281,-3.47656 -0.910156,-5.29296 l 7.601562,-30.40235 c 0.46875,-1.8789 0.703125,-3.80859 0.699219,-5.74219 v -2.33203 C 47.83203,282.66406 37.230469,272.0625 24.148438,272.05078 c -2.191407,-0.004 -4.238282,-1.08594 -5.472657,-2.89453 -1.238281,-1.80859 -1.503906,-4.10938 -0.714843,-6.15234 l 38.398437,-65.21875 c 0.15625,-0.26172 0.292969,-0.53516 0.417969,-0.8125 1.066406,-2.34766 1.746094,-4.85547 2.007812,-7.42188 0.03125,-0.33594 0.04297,-0.67187 0.04297,-1.00781 0,-0.70703 -1.042969,-71.00391 17.167969,-107.433595 C 84.625,63.769531 122.21094,8.082031 241.875,18.03125 c 116.22656,9.683594 175.34375,78.625 166.42578,194.78906 z m 0,0" inkscape:connector-curvature="0" />
  </g>
  <path style="opacity:1;stroke:none;stroke-width:3.47500014;stroke-miterlimit:4;stroke-dasharray:none;stroke-dashoffset:0;stroke-opacity:1" d="M 45.546875 1.84375 A 43.624716 43.624716 0 0 0 1.921875 45.46875 A 43.624716 43.624716 0 0 0 45.546875 89.09375 A 43.624716 43.624716 0 0 0 89.171875 45.46875 A 43.624716 43.624716 0 0 0 45.546875 1.84375 z M 45.546875 5.3027344 A 40.165488 40.165488 0 0 1 85.712891 45.46875 A 40.165488 40.165488 0 0 1 45.546875 85.634766 A 40.165488 40.165488 0 0 1 5.3808594 45.46875 A 40.165488 40.165488 0 0 1 45.546875 5.3027344 z " transform="scale(0.81579859)" id="path962" />
</svg>
